<svg width="375" height="812" viewBox="0 0 375 812" fill="none" xmlns="http://www.w3.org/2000/svg">
<g clip-path="url(#clip0_777_8259)">
<rect width="375" height="812" fill="white"/>
<rect width="375" height="44" fill="white"/>
<rect opacity="0.35" x="336.833" y="17.8334" width="21" height="10.3333" rx="2.16667" stroke="black"/>
<path opacity="0.4" d="M359.333 21V25C360.138 24.6612 360.661 23.8731 360.661 23C360.661 22.1269 360.138 21.3388 359.333 21Z" fill="black"/>
<rect x="338.333" y="19.3334" width="18" height="7.33333" rx="1.33333" fill="black"/>
<path fill-rule="evenodd" clip-rule="evenodd" d="M321.448 25.7574C322.729 24.6751 324.605 24.6751 325.886 25.7574C325.95 25.8156 325.987 25.8982 325.989 25.9849C325.991 26.0716 325.956 26.1547 325.895 26.2154L323.89 28.2378C323.831 28.2972 323.751 28.3306 323.667 28.3306C323.583 28.3306 323.503 28.2973 323.444 28.2378L321.438 26.2154C321.377 26.1547 321.343 26.0713 321.345 25.9849C321.347 25.8982 321.384 25.8155 321.448 25.7574ZM318.772 23.0601C321.532 20.4957 325.804 20.4958 328.563 23.0601C328.626 23.1202 328.661 23.2031 328.662 23.2896C328.663 23.376 328.629 23.4588 328.568 23.5201L327.409 24.691C327.29 24.8103 327.097 24.8121 326.975 24.6959C326.069 23.8761 324.889 23.4223 323.667 23.4224C322.446 23.4229 321.268 23.8768 320.362 24.6959C320.24 24.8122 320.046 24.8105 319.927 24.691L318.769 23.5201C318.707 23.4589 318.673 23.376 318.674 23.2896C318.675 23.2031 318.71 23.1202 318.772 23.0601ZM316.097 20.3697C320.328 16.3176 327.004 16.3178 331.236 20.3697C331.298 20.4299 331.333 20.5123 331.333 20.5982C331.333 20.684 331.3 20.7668 331.239 20.8277L330.079 21.9976C329.96 22.1177 329.765 22.1188 329.644 22.0005C328.031 20.4691 325.892 19.6149 323.667 19.6148C321.442 19.6148 319.302 20.4689 317.689 22.0005C317.568 22.1189 317.374 22.1177 317.255 21.9976L316.094 20.8277C316.033 20.7668 316 20.6839 316 20.5982C316.001 20.5123 316.035 20.4298 316.097 20.3697Z" fill="black"/>
<path d="M296 24.3336C296.552 24.3336 297 24.7813 297 25.3336V27.3336C297 27.8858 296.552 28.3336 296 28.3336H295C294.448 28.3336 294 27.8858 294 27.3336V25.3336C294 24.7813 294.448 24.3336 295 24.3336H296ZM300.667 22.3336C301.219 22.3338 301.667 22.7814 301.667 23.3336V27.3336C301.667 27.8856 301.219 28.3334 300.667 28.3336H299.667C299.115 28.3336 298.667 27.8858 298.667 27.3336V23.3336C298.667 22.7813 299.115 22.3336 299.667 22.3336H300.667ZM305.333 19.9996C305.885 19.9996 306.333 20.4475 306.333 20.9996V27.3336C306.333 27.8858 305.885 28.3336 305.333 28.3336H304.333C303.781 28.3334 303.333 27.8856 303.333 27.3336V20.9996C303.333 20.4476 303.781 19.9998 304.333 19.9996H305.333ZM310 17.6666C310.552 17.6666 311 18.1143 311 18.6666V27.3336C311 27.8858 310.552 28.3336 310 28.3336H309C308.448 28.3336 308 27.8858 308 27.3336V18.6666C308 18.1143 308.448 17.6666 309 17.6666H310Z" fill="black"/>
<path d="M37.1246 17.1675C39.3805 17.1675 41.3434 18.7715 41.3434 22.5801V22.5947C41.3434 26.1543 39.7394 28.2637 37.0807 28.2637C35.1398 28.2637 33.6896 27.1138 33.3527 25.4951L33.338 25.4146H35.1984L35.2204 25.4878C35.4987 26.2275 36.1505 26.7109 37.0807 26.7109C38.7579 26.7109 39.4684 25.0703 39.549 23.0488C39.549 22.9683 39.5563 22.8877 39.5563 22.8071H39.4098C39.0216 23.6421 38.0988 24.3818 36.6486 24.3818C34.6198 24.3818 33.1989 22.9023 33.1989 20.8955V20.8809C33.1989 18.7349 34.8322 17.1675 37.1246 17.1675ZM37.1173 22.9316C38.3112 22.9316 39.2267 22.0674 39.2267 20.8735V20.8589C39.2267 19.6504 38.3112 18.7056 37.1393 18.7056C35.9747 18.7056 35.0446 19.6357 35.0446 20.8149V20.8296C35.0446 22.0527 35.9162 22.9316 37.1173 22.9316ZM44.4286 21.1519C43.7621 21.1519 43.264 20.6392 43.264 19.9946C43.264 19.3428 43.7621 18.8374 44.4286 18.8374C45.1024 18.8374 45.5931 19.3428 45.5931 19.9946C45.5931 20.6392 45.1024 21.1519 44.4286 21.1519ZM44.4286 26.5864C43.7621 26.5864 43.264 26.0811 43.264 25.4292C43.264 24.7773 43.7621 24.272 44.4286 24.272C45.1024 24.272 45.5931 24.7773 45.5931 25.4292C45.5931 26.0811 45.1024 26.5864 44.4286 26.5864ZM52.6407 28V25.9712H47.4698V24.4258C48.8395 22.0454 50.3409 19.6138 51.7765 17.4312H54.4498V24.4111H55.8707V25.9712H54.4498V28H52.6407ZM49.2277 24.4551H52.67V18.9399H52.5602C51.4762 20.5952 50.253 22.5508 49.2277 24.3452V24.4551ZM60.0106 28V19.2915H59.8861L57.2567 21.1519V19.3721L60.0179 17.4312H61.9003V28H60.0106Z" fill="black"/>
<rect width="375" height="44" transform="translate(0 44)" fill="white"/>
<path d="M35 59L28 66L35 73" stroke="#292A2E" stroke-width="2" stroke-linecap="round" stroke-linejoin="round"/>
<path d="M156.539 67.558V68.7403H143.727V67.558H156.539ZM150.826 68.105V73.326H149.367V68.105H150.826ZM146.793 59.895V61.7182H153.456V59.895H154.937V65.9724H145.323V59.895H146.793ZM146.793 64.779H153.456V62.9061H146.793V64.779ZM164.102 61.3149C164.102 62.2983 163.841 63.2173 163.318 64.0718C162.798 64.9227 162.1 65.6446 161.224 66.2376C160.351 66.8306 159.402 67.2413 158.378 67.4696L157.715 66.232C158.599 66.0663 159.43 65.7385 160.207 65.2486C160.988 64.7551 161.614 64.1621 162.086 63.4696C162.561 62.7772 162.8 62.0589 162.804 61.3149V60.2597H164.102V61.3149ZM164.367 61.3149C164.367 62.0589 164.603 62.779 165.075 63.4751C165.55 64.1676 166.179 64.7606 166.964 65.2541C167.752 65.744 168.59 66.07 169.478 66.232L168.804 67.4696C167.78 67.2486 166.831 66.8435 165.958 66.2541C165.086 65.6611 164.389 64.9374 163.87 64.0829C163.351 63.2247 163.093 62.302 163.097 61.3149V60.2597H164.367V61.3149ZM170.069 70.2541V71.4862H157.257V70.2541H170.069ZM185.987 59.326V73.326H184.495V59.326H185.987ZM181.826 60.8343C181.823 62.256 181.602 63.5746 181.163 64.7901C180.725 66.0018 180.022 67.116 179.053 68.1326C178.088 69.1492 176.826 70.0295 175.268 70.7735L174.484 69.5746C175.828 68.9374 176.933 68.1971 177.799 67.3536C178.668 66.5101 179.311 65.5672 179.727 64.5249C180.143 63.4825 180.353 62.3315 180.357 61.0718V60.8343H181.826ZM181.003 60.8343V62.0166H175.163V60.8343H181.003ZM191.003 59.8674V61.5193H197.489V59.8674H198.964V65.5083H189.528V59.8674H191.003ZM191.003 64.3204H197.489V62.674H191.003V64.3204ZM200.622 66.895V68.1105H187.859V66.895H200.622ZM194.97 64.8122V67.4365H193.495V64.8122H194.97ZM199.185 71.8232V73.0387H189.467V71.8232H199.185ZM190.959 69.116V72.2541H189.467V69.116H190.959ZM215.567 62.895V64.116H212.528V62.895H215.567ZM216.622 59.326V67.6575H215.142V59.326H216.622ZM211.932 68.0497C212.904 68.0497 213.746 68.1547 214.456 68.3646C215.171 68.5709 215.718 68.8729 216.097 69.2707C216.477 69.6648 216.666 70.1381 216.666 70.6906C216.666 71.2394 216.477 71.7109 216.097 72.105C215.718 72.4991 215.173 72.7993 214.462 73.0055C213.751 73.2155 212.908 73.3223 211.932 73.326C210.952 73.3223 210.107 73.2155 209.396 73.0055C208.685 72.7993 208.14 72.4991 207.76 72.105C207.385 71.7109 207.199 71.2394 207.202 70.6906C207.199 70.1381 207.386 69.6648 207.766 69.2707C208.145 68.8729 208.69 68.5709 209.401 68.3646C210.112 68.1547 210.956 68.0497 211.932 68.0497ZM211.932 69.1989C211.247 69.1989 210.659 69.2578 210.169 69.3757C209.679 69.4899 209.305 69.6593 209.048 69.884C208.793 70.105 208.668 70.3738 208.672 70.6906C208.668 71 208.793 71.267 209.048 71.4917C209.305 71.7127 209.679 71.8803 210.169 71.9945C210.659 72.1087 211.247 72.1639 211.932 72.1602C212.609 72.1639 213.193 72.1087 213.683 71.9945C214.173 71.8803 214.547 71.7127 214.805 71.4917C215.062 71.267 215.193 71 215.197 70.6906C215.193 70.3738 215.062 70.105 214.805 69.884C214.547 69.6593 214.173 69.4899 213.683 69.3757C213.193 69.2578 212.609 69.1989 211.932 69.1989ZM209.677 61.8122C209.674 62.6777 209.512 63.4936 209.191 64.2597C208.875 65.0221 208.42 65.6924 207.827 66.2707C207.234 66.8453 206.534 67.2799 205.727 67.5746L204.959 66.3978C205.666 66.151 206.283 65.7919 206.81 65.3204C207.34 64.8453 207.747 64.3039 208.031 63.6961C208.315 63.0884 208.456 62.4604 208.456 61.8122V60.7348H209.677V61.8122ZM209.959 61.8011C209.959 62.3941 210.094 62.9687 210.363 63.5249C210.635 64.081 211.026 64.5764 211.534 65.011C212.046 65.4457 212.646 65.779 213.335 66.011L212.578 67.1934C211.793 66.9208 211.112 66.5138 210.534 65.9724C209.959 65.4273 209.517 64.7956 209.208 64.0773C208.902 63.3591 208.749 62.6004 208.749 61.8011V60.7348H209.959V61.8011ZM212.976 60.2928V61.5028H205.418V60.2928H212.976ZM231.274 70.3646V71.5912H218.462V70.3646H231.274ZM225.567 67.105V70.7127H224.097V67.105H225.567ZM221.407 60.2818V62.6961H228.28V60.2818H229.755V67.4917H219.92V60.2818H221.407ZM221.407 66.2873H228.28V63.8895H221.407V66.2873Z" fill="#36383E"/>
<rect width="375" height="724" transform="translate(0 88)" fill="#36383E" fill-opacity="0.05"/>
<rect x="20" y="112" width="335" height="85" rx="10" fill="white"/>
<path d="M51.6457 142.113V143.148H40.4351V142.113H51.6457ZM46.6471 142.592V147.16H45.3709V142.592H46.6471ZM43.1181 135.408V137.003H48.9482V135.408H50.2438V140.726H41.8322V135.408H43.1181ZM43.1181 139.682H48.9482V138.043H43.1181V139.682ZM58.2637 136.651C58.2637 137.511 58.0348 138.315 57.5772 139.063C57.1228 139.807 56.5121 140.439 55.745 140.958C54.9812 141.477 54.1513 141.836 53.2554 142.036L52.6753 140.953C53.4488 140.808 54.1755 140.521 54.8555 140.093C55.5388 139.661 56.0866 139.142 56.4992 138.536C56.9149 137.93 57.1244 137.302 57.1276 136.651V135.727H58.2637V136.651ZM58.4957 136.651C58.4957 137.302 58.702 137.932 59.1145 138.541C59.5302 139.147 60.0814 139.666 60.7678 140.097C61.4575 140.526 62.1907 140.811 62.9674 140.953L62.3776 142.036C61.4817 141.843 60.6518 141.488 59.888 140.972C59.1242 140.453 58.5151 139.82 58.0606 139.073C57.6062 138.322 57.3806 137.514 57.3838 136.651V135.727H58.4957V136.651ZM63.4847 144.472V145.55H52.274V144.472H63.4847ZM77.3787 134.91V147.184H76.0735V134.91H77.3787ZM70.8186 135.829C71.4277 135.829 71.9708 136.006 72.4478 136.36C72.928 136.715 73.3034 137.218 73.5741 137.869C73.8449 138.517 73.9802 139.269 73.9802 140.126C73.9802 140.99 73.8449 141.747 73.5741 142.398C73.3034 143.049 72.928 143.552 72.4478 143.907C71.9708 144.258 71.4277 144.434 70.8186 144.434C70.2063 144.434 69.66 144.258 69.1798 143.907C68.7028 143.552 68.329 143.051 68.0583 142.403C67.7875 141.752 67.6522 140.993 67.6522 140.126C67.6522 139.266 67.7875 138.512 68.0583 137.864C68.329 137.213 68.7028 136.712 69.1798 136.36C69.66 136.006 70.2063 135.829 70.8186 135.829ZM70.8186 136.989C70.4448 136.992 70.1128 137.121 69.8228 137.376C69.5327 137.63 69.3071 137.994 69.146 138.468C68.9848 138.942 68.9043 139.495 68.9043 140.126C68.9043 140.765 68.9848 141.32 69.146 141.794C69.3071 142.268 69.5327 142.632 69.8228 142.887C70.1128 143.141 70.4448 143.269 70.8186 143.269C71.1957 143.269 71.526 143.141 71.8096 142.887C72.0965 142.632 72.3205 142.268 72.4816 141.794C72.6427 141.32 72.7233 140.765 72.7233 140.126C72.7233 139.495 72.6427 138.942 72.4816 138.468C72.3205 137.994 72.0965 137.63 71.8096 137.376C71.5228 137.121 71.1925 136.992 70.8186 136.989ZM90.2425 141.19V142.234H79.0319V141.19H90.2425ZM88.8309 135.186V138.202H81.7584V139.74H80.4725V137.25H87.5353V136.211H80.4386V135.186H88.8309ZM89.0823 139.256V140.262H80.4725V139.256H89.0823ZM88.8503 143.23V147.006H80.5305V143.23H88.8503ZM81.8019 144.269V145.952H87.5692V144.269H81.8019Z" fill="#36383E" fill-opacity="0.8"/>
<path d="M47.8785 168.337V170.448H45.9006V168.337H47.8785ZM53.3978 167.215V168.796H40.4254V167.215H53.3978ZM51.8177 170.028V174.42H49.8232V171.613H41.8619V170.028H51.8177ZM47.8785 160.227V162.315H45.9006V160.227H47.8785ZM47.5249 162.746C47.5249 163.479 47.2947 164.127 46.8343 164.691C46.3775 165.25 45.7035 165.705 44.8122 166.055C43.9208 166.401 42.8416 166.621 41.5746 166.713L40.9724 165.221C42.0589 165.144 42.9613 164.985 43.6796 164.746C44.4015 164.503 44.93 164.208 45.2652 163.862C45.6041 163.516 45.7753 163.144 45.779 162.746V162.436H47.5249V162.746ZM48 162.746C47.9963 163.144 48.1621 163.516 48.4972 163.862C48.8361 164.208 49.3665 164.503 50.0884 164.746C50.814 164.985 51.7219 165.144 52.8122 165.221L52.1989 166.713C50.9282 166.621 49.8471 166.401 48.9558 166.055C48.0645 165.705 47.3904 165.25 46.9337 164.691C46.4807 164.127 46.2541 163.479 46.2541 162.746V162.436H48V162.746ZM52.1381 161.519V163.061H41.6685V161.519H52.1381ZM66.2208 160.21V174.442H64.3369V160.21H66.2208ZM61.9722 165.094V166.696H59.5744V165.094H61.9722ZM63.3148 160.448V173.779H61.4474V160.448H63.3148ZM58.0164 164.022C58.0127 165.131 57.8985 166.186 57.6739 167.188C57.4492 168.19 57.1011 169.09 56.6297 169.89C56.1582 170.689 55.5615 171.311 54.8396 171.757L53.6352 170.287C54.3055 169.875 54.8544 169.337 55.2816 168.674C55.7089 168.007 56.0201 167.28 56.2153 166.492C56.4105 165.703 56.5081 164.88 56.5081 164.022V162.525H58.0164V164.022ZM58.4308 164.022C58.4271 164.866 58.5192 165.661 58.707 166.409C58.8949 167.157 59.1987 167.842 59.6186 168.464C60.0385 169.083 60.5799 169.584 61.2429 169.967L60.0772 171.431C59.3516 171.004 58.7549 170.414 58.2871 169.663C57.823 168.912 57.4842 168.059 57.2706 167.105C57.0606 166.151 56.9556 165.123 56.9556 164.022V162.525H58.4308V164.022ZM60.5855 161.669V163.265H54.1766V161.669H60.5855ZM78.7234 160.232V168.746H76.7234V160.232H78.7234ZM80.6461 163.541V165.182H78.1323V163.541H80.6461ZM69.1488 166.558C70.6332 166.562 71.8542 166.536 72.8118 166.481C73.7732 166.422 74.7326 166.309 75.6903 166.144L75.9002 167.729C74.9352 167.913 73.9536 168.037 72.9555 168.099C71.961 168.162 70.6921 168.192 69.1488 168.188H67.9555V166.558H69.1488ZM74.4748 161.072V165.304H69.9444V167.552H67.9555V163.818H72.5301V162.641H67.9334V161.072H74.4748ZM74.0273 169.022C75.0107 169.026 75.8652 169.138 76.5908 169.359C77.3164 169.576 77.8744 169.891 78.2649 170.304C78.659 170.713 78.856 171.199 78.856 171.762C78.856 172.319 78.659 172.796 78.2649 173.193C77.8744 173.591 77.3164 173.895 76.5908 174.105C75.8652 174.315 75.0107 174.42 74.0273 174.42C73.0291 174.42 72.1636 174.315 71.4306 174.105C70.7013 173.895 70.1396 173.591 69.7455 173.193C69.3551 172.796 69.1599 172.319 69.1599 171.762C69.1599 171.199 69.3551 170.713 69.7455 170.304C70.1396 169.891 70.7032 169.576 71.4361 169.359C72.1691 169.138 73.0328 169.026 74.0273 169.022ZM74.0273 170.569C73.3938 170.569 72.8597 170.615 72.4251 170.707C71.9942 170.796 71.6682 170.928 71.4472 171.105C71.2299 171.282 71.1231 171.501 71.1267 171.762C71.1231 172.02 71.2299 172.238 71.4472 172.414C71.6682 172.587 71.9942 172.718 72.4251 172.807C72.8597 172.891 73.3938 172.934 74.0273 172.934C74.6535 172.934 75.1783 172.891 75.6019 172.807C76.0255 172.718 76.3459 172.587 76.5632 172.414C76.7805 172.238 76.8892 172.02 76.8892 171.762C76.8892 171.501 76.7805 171.282 76.5632 171.105C76.3459 170.928 76.0255 170.796 75.6019 170.707C75.1783 170.615 74.6535 170.569 74.0273 170.569Z" fill="#36383E" fill-opacity="0.9"/>
<rect x="262" y="130" width="73" height="38" rx="9" fill="#36383E" fill-opacity="0.05"/>
<path d="M283.573 144.419C283.573 145.068 283.381 145.664 282.997 146.209C282.616 146.753 282.098 147.209 281.443 147.576C280.791 147.941 280.073 148.185 279.289 148.309L278.841 147.402C279.523 147.311 280.152 147.119 280.727 146.826C281.301 146.53 281.757 146.171 282.094 145.749C282.431 145.326 282.599 144.883 282.599 144.419V143.847H283.573V144.419ZM283.76 144.419C283.76 144.877 283.93 145.319 284.269 145.744C284.609 146.167 285.066 146.526 285.641 146.822C286.218 147.117 286.848 147.311 287.53 147.402L287.087 148.309C286.3 148.185 285.577 147.939 284.92 147.572C284.265 147.204 283.746 146.749 283.362 146.204C282.981 145.657 282.791 145.062 282.794 144.419V143.847H283.76V144.419ZM283.698 150.037V153.994H282.604V150.037H283.698ZM287.961 149.341V150.261H278.39V149.341H287.961ZM296.481 146.171V147.087H294.202V146.171H296.481ZM297.272 143.494V149.743H296.161V143.494H297.272ZM293.754 150.037C294.483 150.037 295.115 150.116 295.648 150.273C296.184 150.428 296.594 150.655 296.878 150.953C297.163 151.249 297.305 151.604 297.305 152.018C297.305 152.43 297.163 152.783 296.878 153.079C296.594 153.374 296.185 153.599 295.652 153.754C295.119 153.912 294.486 153.992 293.754 153.994C293.019 153.992 292.385 153.912 291.852 153.754C291.319 153.599 290.91 153.374 290.626 153.079C290.344 152.783 290.204 152.43 290.207 152.018C290.204 151.604 290.345 151.249 290.63 150.953C290.914 150.655 291.323 150.428 291.856 150.273C292.389 150.116 293.022 150.037 293.754 150.037ZM293.754 150.899C293.24 150.899 292.8 150.943 292.432 151.032C292.065 151.117 291.784 151.244 291.591 151.413C291.4 151.579 291.307 151.78 291.309 152.018C291.307 152.25 291.4 152.45 291.591 152.619C291.784 152.785 292.065 152.91 292.432 152.996C292.8 153.081 293.24 153.123 293.754 153.12C294.262 153.123 294.7 153.081 295.068 152.996C295.435 152.91 295.715 152.785 295.909 152.619C296.102 152.45 296.2 152.25 296.203 152.018C296.2 151.78 296.102 151.579 295.909 151.413C295.715 151.244 295.435 151.117 295.068 151.032C294.7 150.943 294.262 150.899 293.754 150.899ZM292.063 145.359C292.061 146.008 291.939 146.62 291.699 147.195C291.461 147.767 291.12 148.269 290.675 148.703C290.231 149.134 289.706 149.46 289.101 149.681L288.525 148.798C289.055 148.613 289.518 148.344 289.913 147.99C290.311 147.634 290.616 147.228 290.829 146.772C291.041 146.316 291.148 145.845 291.148 145.359V144.551H292.063V145.359ZM292.275 145.351C292.275 145.796 292.376 146.227 292.577 146.644C292.782 147.061 293.074 147.432 293.456 147.758C293.84 148.084 294.29 148.334 294.807 148.508L294.239 149.395C293.65 149.191 293.139 148.885 292.706 148.479C292.275 148.07 291.943 147.597 291.711 147.058C291.482 146.519 291.367 145.95 291.367 145.351V144.551H292.275V145.351ZM294.537 144.22V145.127H288.869V144.22H294.537ZM306.831 143.494V153.994H305.729V143.494H306.831ZM308.514 147.75V148.674H306.583V147.75H308.514ZM304.813 145.14V146.047H298.594V145.14H304.813ZM301.747 146.822C302.241 146.822 302.686 146.927 303.081 147.137C303.476 147.344 303.787 147.633 304.014 148.003C304.24 148.373 304.353 148.794 304.353 149.267C304.353 149.739 304.24 150.16 304.014 150.53C303.787 150.901 303.476 151.189 303.081 151.396C302.686 151.604 302.241 151.707 301.747 151.707C301.247 151.707 300.798 151.604 300.4 151.396C300.003 151.189 299.692 150.901 299.468 150.53C299.244 150.157 299.132 149.736 299.132 149.267C299.132 148.797 299.244 148.377 299.468 148.007C299.692 147.634 300.003 147.344 300.4 147.137C300.798 146.927 301.247 146.822 301.747 146.822ZM301.747 147.742C301.449 147.742 301.182 147.807 300.947 147.936C300.712 148.064 300.527 148.243 300.392 148.475C300.259 148.707 300.195 148.971 300.197 149.267C300.195 149.562 300.259 149.826 300.392 150.058C300.527 150.287 300.712 150.465 300.947 150.593C301.182 150.717 301.449 150.779 301.747 150.779C302.043 150.779 302.306 150.717 302.538 150.593C302.77 150.465 302.953 150.287 303.085 150.058C303.221 149.826 303.29 149.562 303.293 149.267C303.29 148.971 303.221 148.707 303.085 148.475C302.953 148.243 302.769 148.064 302.534 147.936C302.302 147.807 302.04 147.742 301.747 147.742ZM302.294 143.631V145.525H301.183V143.631H302.294ZM317.509 143.494V153.994H316.391V143.494H317.509ZM314.389 144.626C314.386 145.692 314.221 146.681 313.892 147.593C313.563 148.501 313.036 149.337 312.309 150.099C311.585 150.862 310.639 151.522 309.471 152.08L308.882 151.181C309.891 150.703 310.719 150.148 311.368 149.515C312.02 148.883 312.502 148.175 312.815 147.394C313.127 146.612 313.284 145.749 313.287 144.804V144.626H314.389ZM313.772 144.626V145.512H309.392V144.626H313.772Z" fill="#36383E" fill-opacity="0.9"/>
<rect x="20" y="213" width="335" height="85" rx="10" fill="white"/>
<path d="M47.9137 239.26V240.324H45.2355V239.26H47.9137ZM47.8847 242.325V243.389H45.1485V242.325H47.8847ZM50.9834 235.91V248.16H49.7507V235.91H50.9834ZM48.4793 236.224V247.566H47.2417V236.224H48.4793ZM45.7431 237.433C45.7399 238.567 45.5836 239.623 45.2742 240.599C44.9648 241.576 44.4701 242.483 43.7901 243.321C43.1133 244.159 42.235 244.9 41.1554 245.545L40.3819 244.622C41.3294 244.061 42.1061 243.427 42.712 242.722C43.3179 242.016 43.7643 241.246 44.0511 240.411C44.3412 239.573 44.4878 238.664 44.491 237.684V237.433H45.7431ZM44.9696 237.433V238.501H40.9862V237.433H44.9696ZM56.4122 238.086C56.4089 238.808 56.2671 239.478 55.9867 240.097C55.7064 240.712 55.3051 241.246 54.783 241.697C54.2609 242.148 53.647 242.486 52.9412 242.712L52.2837 241.692C52.9057 241.502 53.4471 241.226 53.908 240.865C54.3689 240.504 54.7234 240.085 54.9715 239.608C55.2229 239.128 55.3502 238.621 55.3534 238.086V237.385H56.4122V238.086ZM56.6635 238.086C56.6603 238.582 56.7779 239.054 57.0164 239.502C57.2581 239.95 57.603 240.346 58.051 240.691C58.5022 241.036 59.0323 241.299 59.6414 241.479L59.0226 242.499C58.3201 242.287 57.711 241.966 57.1953 241.537C56.6796 241.105 56.2848 240.593 56.0109 240C55.7402 239.407 55.6064 238.769 55.6097 238.086V237.385H56.6635V238.086ZM59.3272 236.998V238.071H52.6753V236.998H59.3272ZM56.6635 242.2V244.994H55.368V242.2H56.6635ZM63.7119 240.914V242.011H61.4543V240.914H63.7119ZM61.8265 235.91V248.16H60.5309V235.91H61.8265ZM52.1193 244.597H52.5254C53.46 244.597 54.306 244.591 55.0634 244.578C55.824 244.562 56.6184 244.528 57.4467 244.477C58.2782 244.425 59.0597 244.349 59.7913 244.249L59.8831 245.197C59.1226 245.335 58.3297 245.439 57.5047 245.506C56.6829 245.574 55.8997 245.617 55.1552 245.637C54.414 245.656 53.5954 245.667 52.6994 245.671H52.3079L52.1193 244.597ZM73.3706 239.304V240.363H69.9334V239.304H73.3706ZM74.3036 235.92V244.974H73.008V235.92H74.3036ZM74.5791 246.845V247.909H66.3029V246.845H74.5791ZM67.613 244.085V247.401H66.3029V244.085H67.613ZM65.9742 236.727V238.806H69.0439V236.727H70.3298V242.934H64.6737V236.727H65.9742ZM65.9742 241.89H69.0439V239.811H65.9742V241.89ZM86.5244 237.631V238.69H76.4402V237.631H86.5244ZM87.1239 245.724V246.787H75.9132V245.724H87.1239ZM82.1253 243.858V246.13H80.849V243.858H82.1253ZM81.4823 239.425C82.3138 239.425 83.0357 239.518 83.6481 239.705C84.2604 239.889 84.7325 240.156 85.0645 240.508C85.3997 240.859 85.5673 241.276 85.5673 241.76C85.5673 242.253 85.3997 242.678 85.0645 243.036C84.7325 243.39 84.2604 243.663 83.6481 243.853C83.0357 244.04 82.3138 244.133 81.4823 244.133C80.6444 244.133 79.9176 244.04 79.3021 243.853C78.6897 243.663 78.2192 243.39 77.8905 243.036C77.5617 242.678 77.399 242.253 77.4022 241.76C77.399 241.273 77.5617 240.856 77.8905 240.508C78.2192 240.156 78.6897 239.889 79.3021 239.705C79.9176 239.518 80.6444 239.425 81.4823 239.425ZM81.4823 240.45C80.9022 240.45 80.4059 240.5 79.9934 240.599C79.5808 240.699 79.265 240.849 79.0458 241.049C78.8299 241.246 78.7219 241.483 78.7219 241.76C78.7219 242.043 78.8299 242.285 79.0458 242.485C79.265 242.681 79.5792 242.831 79.9885 242.934C80.401 243.034 80.899 243.086 81.4823 243.089C82.0592 243.086 82.5523 243.034 82.9616 242.934C83.3741 242.831 83.69 242.681 83.9091 242.485C84.1315 242.285 84.2427 242.043 84.2427 241.76C84.2427 241.483 84.1315 241.246 83.9091 241.049C83.69 240.849 83.3741 240.699 82.9616 240.599C82.5523 240.5 82.0592 240.45 81.4823 240.45ZM82.1253 236.089V238.294H80.849V236.089H82.1253Z" fill="#36383E" fill-opacity="0.8"/>
<path d="M52.3203 271.617H50.3281V261.234H52.3203V271.617ZM52.7109 275.195H42.7969V273.586H52.7109V275.195ZM44.8125 274.438H42.7969V270.602H44.8125V274.438ZM45.4609 263.383C45.4609 264.341 45.3073 265.237 45 266.07C44.6979 266.904 44.2422 267.635 43.6328 268.266C43.0286 268.896 42.2839 269.365 41.3984 269.672L40.3672 268.102C41.138 267.846 41.7812 267.474 42.2969 266.984C42.8125 266.49 43.1927 265.932 43.4375 265.312C43.6823 264.693 43.8047 264.049 43.8047 263.383V262.016H45.4609V263.383ZM45.875 263.383C45.875 264.029 45.9922 264.646 46.2266 265.234C46.4609 265.818 46.8281 266.339 47.3281 266.797C47.8333 267.255 48.4583 267.607 49.2031 267.852L48.1875 269.43C47.3073 269.133 46.5703 268.69 45.9766 268.102C45.388 267.508 44.9453 266.81 44.6484 266.008C44.3516 265.201 44.2031 264.326 44.2031 263.383V262.016H45.875V263.383ZM65.2113 271.852H63.2191V261.234H65.2113V271.852ZM67.1331 267.219H64.6331V265.586H67.1331V267.219ZM62.3675 264.289H53.9222V262.719H62.3675V264.289ZM58.1566 264.789C58.8336 264.789 59.4378 264.906 59.9691 265.141C60.5003 265.37 60.9144 265.693 61.2113 266.109C61.5081 266.526 61.6566 267.005 61.6566 267.547C61.6566 268.083 61.5081 268.557 61.2113 268.969C60.9144 269.375 60.5003 269.693 59.9691 269.922C59.4378 270.151 58.8336 270.266 58.1566 270.266C57.4691 270.266 56.8571 270.151 56.3206 269.922C55.7842 269.693 55.3675 269.375 55.0706 268.969C54.7738 268.557 54.6253 268.083 54.6253 267.547C54.6253 267.005 54.7738 266.526 55.0706 266.109C55.3675 265.693 55.7842 265.37 56.3206 265.141C56.8571 264.906 57.4691 264.789 58.1566 264.789ZM58.1566 266.32C57.8389 266.32 57.5576 266.367 57.3128 266.461C57.0732 266.555 56.8883 266.695 56.7581 266.883C56.6279 267.07 56.5628 267.292 56.5628 267.547C56.5628 267.802 56.6279 268.021 56.7581 268.203C56.8883 268.38 57.0732 268.516 57.3128 268.609C57.5576 268.703 57.8389 268.75 58.1566 268.75C58.4743 268.75 58.7529 268.703 58.9925 268.609C59.2373 268.516 59.4274 268.38 59.5628 268.203C59.6982 268.021 59.7659 267.802 59.7659 267.547C59.7659 267.292 59.6982 267.07 59.5628 266.883C59.4274 266.695 59.2373 266.555 58.9925 266.461C58.7529 266.367 58.4743 266.32 58.1566 266.32ZM59.1488 263.492H57.1566V261.211H59.1488V263.492ZM65.7191 275.195H55.9847V273.586H65.7191V275.195ZM57.9769 274.273H55.9847V271.031H57.9769V274.273ZM76.1572 274H73.7978V264.922H73.7353L71.1494 266.562V264.469L73.9463 262.688H76.1572V274ZM83.3372 274H80.9778V264.922H80.9153L78.3294 266.562V264.469L81.1263 262.688H83.3372V274ZM90.0406 274.156C89.0979 274.156 88.2854 273.93 87.6031 273.477C86.926 273.023 86.4052 272.362 86.0406 271.492C85.6813 270.617 85.5016 269.568 85.5016 268.344C85.5016 267.12 85.6813 266.073 86.0406 265.203C86.4052 264.333 86.9286 263.672 87.6109 263.219C88.2932 262.76 89.1031 262.531 90.0406 262.531C90.9781 262.531 91.788 262.76 92.4703 263.219C93.1526 263.672 93.676 264.336 94.0406 265.211C94.4052 266.081 94.5875 267.125 94.5875 268.344C94.5875 269.573 94.4052 270.622 94.0406 271.492C93.6813 272.362 93.1604 273.023 92.4781 273.477C91.7958 273.93 90.9833 274.156 90.0406 274.156ZM90.0406 272.219C90.4781 272.219 90.8583 272.076 91.1813 271.789C91.5094 271.503 91.7594 271.07 91.9313 270.492C92.1031 269.909 92.1865 269.193 92.1813 268.344C92.1813 267.5 92.0953 266.789 91.9234 266.211C91.7516 265.628 91.5042 265.19 91.1813 264.898C90.8583 264.607 90.4781 264.461 90.0406 264.461C89.6031 264.461 89.2229 264.607 88.9 264.898C88.5823 265.19 88.3349 265.628 88.1578 266.211C87.9807 266.789 87.8922 267.5 87.8922 268.344C87.8922 269.193 87.9781 269.909 88.15 270.492C88.3271 271.07 88.5771 271.503 88.9 271.789C89.2229 272.076 89.6031 272.219 90.0406 272.219ZM101.166 269.258H96.0097V267.422H101.166V269.258ZM107.627 274H105.268V264.922H105.205L102.619 266.562V264.469L105.416 262.688H107.627V274ZM109.924 272.305L113.995 268.562C114.396 268.177 114.708 267.859 114.932 267.609C115.156 267.354 115.325 267.099 115.44 266.844C115.56 266.583 115.62 266.307 115.62 266.016C115.62 265.693 115.542 265.409 115.385 265.164C115.229 264.914 115.016 264.724 114.745 264.594C114.474 264.464 114.167 264.398 113.823 264.398C113.474 264.398 113.164 264.469 112.893 264.609C112.628 264.75 112.422 264.956 112.276 265.227C112.135 265.492 112.065 265.802 112.065 266.156H109.831C109.831 265.432 109.997 264.797 110.331 264.25C110.669 263.698 111.141 263.273 111.745 262.977C112.354 262.68 113.055 262.531 113.846 262.531C114.643 262.531 115.346 262.672 115.956 262.953C116.565 263.234 117.036 263.628 117.37 264.133C117.708 264.638 117.878 265.216 117.878 265.867C117.878 266.31 117.792 266.737 117.62 267.148C117.453 267.56 117.156 268.016 116.729 268.516C116.307 269.016 115.706 269.62 114.924 270.328L113.198 271.992V272.07H118.042V274H109.932L109.924 272.305ZM123.581 274.156C122.758 274.156 122.021 274.016 121.37 273.734C120.719 273.453 120.209 273.057 119.839 272.547C119.474 272.036 119.284 271.458 119.268 270.812H121.636C121.651 271.078 121.745 271.318 121.917 271.531C122.089 271.745 122.321 271.911 122.612 272.031C122.904 272.151 123.227 272.211 123.581 272.211C123.951 272.211 124.284 272.146 124.581 272.016C124.883 271.88 125.115 271.698 125.276 271.469C125.438 271.234 125.516 270.969 125.511 270.672C125.516 270.365 125.433 270.091 125.261 269.852C125.089 269.612 124.839 269.427 124.511 269.297C124.188 269.161 123.808 269.094 123.37 269.094H122.315V267.359H123.37C123.74 267.359 124.071 267.297 124.362 267.172C124.654 267.042 124.878 266.862 125.034 266.633C125.19 266.404 125.266 266.143 125.261 265.852C125.266 265.565 125.201 265.312 125.065 265.094C124.93 264.87 124.735 264.698 124.479 264.578C124.224 264.458 123.933 264.398 123.604 264.398C123.271 264.398 122.966 264.458 122.69 264.578C122.414 264.693 122.19 264.859 122.018 265.078C121.852 265.292 121.761 265.542 121.745 265.828H119.495C119.516 265.188 119.706 264.617 120.065 264.117C120.425 263.617 120.912 263.229 121.526 262.953C122.146 262.672 122.839 262.531 123.604 262.531C124.38 262.531 125.065 262.669 125.659 262.945C126.253 263.221 126.714 263.602 127.042 264.086C127.37 264.57 127.529 265.112 127.518 265.711C127.529 266.122 127.443 266.497 127.261 266.836C127.084 267.174 126.831 267.453 126.503 267.672C126.18 267.885 125.805 268.031 125.378 268.109V268.195C125.93 268.263 126.399 268.417 126.784 268.656C127.175 268.891 127.469 269.193 127.667 269.562C127.865 269.932 127.959 270.354 127.948 270.828C127.959 271.458 127.776 272.029 127.401 272.539C127.026 273.044 126.505 273.44 125.839 273.727C125.172 274.013 124.419 274.156 123.581 274.156ZM129.113 270.141L133.894 262.688H135.488V265.266H134.534L131.488 270.016V270.109H138.277V272H129.113V270.141ZM134.605 271.43L134.636 270.609V262.688H136.847V274H134.605V271.43ZM143.652 274.156C142.881 274.156 142.183 274.013 141.558 273.727C140.933 273.44 140.441 273.042 140.082 272.531C139.727 272.021 139.543 271.448 139.527 270.812H141.8C141.826 271.104 141.923 271.362 142.089 271.586C142.261 271.81 142.483 271.987 142.753 272.117C143.029 272.242 143.329 272.305 143.652 272.305C144.037 272.305 144.381 272.219 144.683 272.047C144.99 271.875 145.23 271.638 145.402 271.336C145.574 271.029 145.66 270.682 145.66 270.297C145.66 269.896 145.571 269.544 145.394 269.242C145.222 268.935 144.98 268.695 144.668 268.523C144.36 268.346 144.009 268.258 143.613 268.258C143.191 268.253 142.834 268.328 142.543 268.484C142.251 268.641 142.019 268.88 141.847 269.203H139.714L140.332 262.688H147.293V264.617H142.269L141.957 267.469H142.043C142.261 267.182 142.574 266.951 142.98 266.773C143.386 266.596 143.832 266.508 144.316 266.508C144.998 266.508 145.615 266.667 146.168 266.984C146.725 267.297 147.157 267.737 147.464 268.305C147.777 268.872 147.931 269.516 147.925 270.234C147.931 270.984 147.751 271.659 147.386 272.258C147.027 272.852 146.524 273.318 145.878 273.656C145.233 273.99 144.49 274.156 143.652 274.156ZM153.59 274.156C152.751 274.151 151.991 273.966 151.308 273.602C150.626 273.237 150.074 272.641 149.652 271.812C149.23 270.984 149.019 269.914 149.019 268.602C149.019 267.346 149.209 266.263 149.59 265.352C149.975 264.435 150.517 263.737 151.215 263.258C151.918 262.773 152.738 262.531 153.676 262.531C154.42 262.531 155.084 262.674 155.668 262.961C156.256 263.247 156.73 263.641 157.09 264.141C157.449 264.641 157.668 265.203 157.746 265.828H155.426C155.363 265.562 155.251 265.333 155.09 265.141C154.933 264.943 154.736 264.794 154.496 264.695C154.256 264.596 153.983 264.547 153.676 264.547C153.17 264.547 152.743 264.693 152.394 264.984C152.051 265.271 151.788 265.682 151.605 266.219C151.423 266.755 151.329 267.398 151.324 268.148H151.418C151.595 267.815 151.829 267.531 152.121 267.297C152.418 267.057 152.754 266.875 153.129 266.75C153.509 266.62 153.905 266.555 154.316 266.555C154.988 266.555 155.595 266.711 156.137 267.023C156.678 267.336 157.1 267.771 157.402 268.328C157.709 268.88 157.863 269.508 157.863 270.211C157.863 270.971 157.683 271.651 157.324 272.25C156.97 272.849 156.467 273.318 155.816 273.656C155.17 273.99 154.428 274.156 153.59 274.156ZM153.574 272.305C153.954 272.305 154.295 272.216 154.598 272.039C154.905 271.857 155.144 271.612 155.316 271.305C155.493 270.992 155.582 270.651 155.582 270.281C155.582 269.901 155.496 269.557 155.324 269.25C155.152 268.943 154.915 268.703 154.613 268.531C154.311 268.359 153.97 268.273 153.59 268.273C153.215 268.273 152.874 268.362 152.566 268.539C152.259 268.716 152.017 268.958 151.84 269.266C151.663 269.573 151.569 269.914 151.558 270.289C151.564 270.648 151.652 270.982 151.824 271.289C152.001 271.596 152.241 271.844 152.543 272.031C152.85 272.214 153.194 272.305 153.574 272.305ZM164.387 264.688V264.617H158.84V262.688H166.824V264.648L162.051 274H159.629L164.387 264.688ZM172.098 274.156C171.254 274.156 170.494 274.018 169.817 273.742C169.145 273.466 168.619 273.083 168.239 272.594C167.859 272.104 167.668 271.557 167.668 270.953C167.668 270.49 167.778 270.057 167.997 269.656C168.215 269.25 168.512 268.917 168.887 268.656C169.267 268.396 169.689 268.232 170.153 268.164V268.078C169.757 268 169.403 267.844 169.09 267.609C168.778 267.37 168.533 267.073 168.356 266.719C168.179 266.365 168.09 265.984 168.09 265.578C168.09 265 168.265 264.479 168.614 264.016C168.963 263.547 169.442 263.182 170.051 262.922C170.661 262.661 171.343 262.531 172.098 262.531C172.859 262.531 173.543 262.661 174.153 262.922C174.767 263.182 175.247 263.547 175.59 264.016C175.939 264.479 176.114 265 176.114 265.578C176.114 265.984 176.023 266.365 175.84 266.719C175.663 267.073 175.418 267.37 175.106 267.609C174.799 267.844 174.444 268 174.043 268.078V268.164C174.507 268.232 174.926 268.396 175.301 268.656C175.681 268.917 175.984 269.25 176.207 269.656C176.431 270.057 176.543 270.49 176.543 270.953C176.543 271.557 176.351 272.104 175.965 272.594C175.585 273.083 175.056 273.466 174.379 273.742C173.707 274.018 172.947 274.156 172.098 274.156ZM172.098 272.367C172.489 272.367 172.835 272.297 173.137 272.156C173.439 272.016 173.674 271.82 173.84 271.57C174.007 271.32 174.09 271.039 174.09 270.727C174.09 270.398 174.004 270.104 173.832 269.844C173.661 269.583 173.424 269.38 173.122 269.234C172.819 269.089 172.478 269.016 172.098 269.016C171.723 269.016 171.385 269.089 171.082 269.234C170.78 269.38 170.543 269.583 170.372 269.844C170.2 270.104 170.116 270.398 170.122 270.727C170.116 271.039 170.197 271.32 170.364 271.57C170.53 271.82 170.765 272.016 171.067 272.156C171.369 272.297 171.713 272.367 172.098 272.367ZM172.098 267.352C172.426 267.352 172.721 267.286 172.981 267.156C173.247 267.021 173.452 266.839 173.598 266.609C173.744 266.375 173.817 266.112 173.817 265.82C173.817 265.523 173.744 265.26 173.598 265.031C173.457 264.802 173.254 264.625 172.989 264.5C172.728 264.37 172.431 264.305 172.098 264.305C171.77 264.305 171.473 264.37 171.207 264.5C170.947 264.625 170.744 264.802 170.598 265.031C170.457 265.26 170.387 265.523 170.387 265.82C170.387 266.112 170.46 266.375 170.606 266.609C170.757 266.839 170.963 267.021 171.223 267.156C171.484 267.286 171.775 267.352 172.098 267.352ZM181.942 262.531C182.781 262.531 183.541 262.714 184.223 263.078C184.906 263.438 185.455 264.031 185.872 264.859C186.294 265.682 186.505 266.745 186.505 268.047C186.51 269.312 186.322 270.404 185.942 271.32C185.562 272.237 185.02 272.94 184.317 273.43C183.619 273.914 182.796 274.156 181.848 274.156C181.109 274.156 180.445 274.01 179.856 273.719C179.268 273.427 178.794 273.031 178.434 272.531C178.075 272.026 177.856 271.456 177.778 270.82H180.091C180.158 271.096 180.27 271.333 180.427 271.531C180.588 271.729 180.789 271.88 181.028 271.984C181.273 272.089 181.546 272.141 181.848 272.141C182.354 272.141 182.783 271.995 183.137 271.703C183.492 271.411 183.757 270.995 183.934 270.453C184.117 269.906 184.208 269.255 184.208 268.5H184.106C183.929 268.823 183.695 269.104 183.403 269.344C183.111 269.583 182.776 269.768 182.395 269.898C182.02 270.023 181.624 270.086 181.208 270.086C180.541 270.086 179.937 269.93 179.395 269.617C178.859 269.305 178.437 268.872 178.13 268.32C177.822 267.763 177.666 267.141 177.661 266.453C177.661 265.698 177.838 265.023 178.192 264.43C178.552 263.831 179.057 263.365 179.708 263.031C180.359 262.693 181.104 262.526 181.942 262.531ZM181.95 264.375C181.575 264.375 181.234 264.466 180.927 264.648C180.619 264.826 180.38 265.068 180.208 265.375C180.036 265.677 179.95 266.013 179.95 266.383C179.955 266.753 180.044 267.089 180.216 267.391C180.387 267.693 180.622 267.932 180.919 268.109C181.221 268.286 181.557 268.375 181.927 268.375C182.307 268.375 182.651 268.284 182.958 268.102C183.27 267.919 183.518 267.674 183.7 267.367C183.882 267.055 183.971 266.721 183.966 266.367C183.966 266.008 183.877 265.677 183.7 265.375C183.523 265.068 183.283 264.826 182.981 264.648C182.679 264.466 182.335 264.375 181.95 264.375Z" fill="#36383E" fill-opacity="0.9"/>
<rect x="262" y="231" width="73" height="40" rx="9" fill="#36383E" fill-opacity="0.05"/>
<path d="M283.573 246.419C283.573 247.068 283.381 247.664 282.997 248.209C282.616 248.753 282.098 249.209 281.443 249.576C280.791 249.941 280.073 250.185 279.289 250.309L278.841 249.402C279.523 249.311 280.152 249.119 280.727 248.826C281.301 248.53 281.757 248.171 282.094 247.749C282.431 247.326 282.599 246.883 282.599 246.419V245.847H283.573V246.419ZM283.76 246.419C283.76 246.877 283.93 247.319 284.269 247.744C284.609 248.167 285.066 248.526 285.641 248.822C286.218 249.117 286.848 249.311 287.53 249.402L287.087 250.309C286.3 250.185 285.577 249.939 284.92 249.572C284.265 249.204 283.746 248.749 283.362 248.204C282.981 247.657 282.791 247.062 282.794 246.419V245.847H283.76V246.419ZM283.698 252.037V255.994H282.604V252.037H283.698ZM287.961 251.341V252.261H278.39V251.341H287.961ZM296.481 248.171V249.087H294.202V248.171H296.481ZM297.272 245.494V251.743H296.161V245.494H297.272ZM293.754 252.037C294.483 252.037 295.115 252.116 295.648 252.273C296.184 252.428 296.594 252.655 296.878 252.953C297.163 253.249 297.305 253.604 297.305 254.018C297.305 254.43 297.163 254.783 296.878 255.079C296.594 255.374 296.185 255.599 295.652 255.754C295.119 255.912 294.486 255.992 293.754 255.994C293.019 255.992 292.385 255.912 291.852 255.754C291.319 255.599 290.91 255.374 290.626 255.079C290.344 254.783 290.204 254.43 290.207 254.018C290.204 253.604 290.345 253.249 290.63 252.953C290.914 252.655 291.323 252.428 291.856 252.273C292.389 252.116 293.022 252.037 293.754 252.037ZM293.754 252.899C293.24 252.899 292.8 252.943 292.432 253.032C292.065 253.117 291.784 253.244 291.591 253.413C291.4 253.579 291.307 253.78 291.309 254.018C291.307 254.25 291.4 254.45 291.591 254.619C291.784 254.785 292.065 254.91 292.432 254.996C292.8 255.081 293.24 255.123 293.754 255.12C294.262 255.123 294.7 255.081 295.068 254.996C295.435 254.91 295.715 254.785 295.909 254.619C296.102 254.45 296.2 254.25 296.203 254.018C296.2 253.78 296.102 253.579 295.909 253.413C295.715 253.244 295.435 253.117 295.068 253.032C294.7 252.943 294.262 252.899 293.754 252.899ZM292.063 247.359C292.061 248.008 291.939 248.62 291.699 249.195C291.461 249.767 291.12 250.269 290.675 250.703C290.231 251.134 289.706 251.46 289.101 251.681L288.525 250.798C289.055 250.613 289.518 250.344 289.913 249.99C290.311 249.634 290.616 249.228 290.829 248.772C291.041 248.316 291.148 247.845 291.148 247.359V246.551H292.063V247.359ZM292.275 247.351C292.275 247.796 292.376 248.227 292.577 248.644C292.782 249.061 293.074 249.432 293.456 249.758C293.84 250.084 294.29 250.334 294.807 250.508L294.239 251.395C293.65 251.191 293.139 250.885 292.706 250.479C292.275 250.07 291.943 249.597 291.711 249.058C291.482 248.519 291.367 247.95 291.367 247.351V246.551H292.275V247.351ZM294.537 246.22V247.127H288.869V246.22H294.537ZM306.831 245.494V255.994H305.729V245.494H306.831ZM308.514 249.75V250.674H306.583V249.75H308.514ZM304.813 247.14V248.047H298.594V247.14H304.813ZM301.747 248.822C302.241 248.822 302.686 248.927 303.081 249.137C303.476 249.344 303.787 249.633 304.014 250.003C304.24 250.373 304.353 250.794 304.353 251.267C304.353 251.739 304.24 252.16 304.014 252.53C303.787 252.901 303.476 253.189 303.081 253.396C302.686 253.604 302.241 253.707 301.747 253.707C301.247 253.707 300.798 253.604 300.4 253.396C300.003 253.189 299.692 252.901 299.468 252.53C299.244 252.157 299.132 251.736 299.132 251.267C299.132 250.797 299.244 250.377 299.468 250.007C299.692 249.634 300.003 249.344 300.4 249.137C300.798 248.927 301.247 248.822 301.747 248.822ZM301.747 249.742C301.449 249.742 301.182 249.807 300.947 249.936C300.712 250.064 300.527 250.243 300.392 250.475C300.259 250.707 300.195 250.971 300.197 251.267C300.195 251.562 300.259 251.826 300.392 252.058C300.527 252.287 300.712 252.465 300.947 252.593C301.182 252.717 301.449 252.779 301.747 252.779C302.043 252.779 302.306 252.717 302.538 252.593C302.77 252.465 302.953 252.287 303.085 252.058C303.221 251.826 303.29 251.562 303.293 251.267C303.29 250.971 303.221 250.707 303.085 250.475C302.953 250.243 302.769 250.064 302.534 249.936C302.302 249.807 302.04 249.742 301.747 249.742ZM302.294 245.631V247.525H301.183V245.631H302.294ZM317.509 245.494V255.994H316.391V245.494H317.509ZM314.389 246.626C314.386 247.692 314.221 248.681 313.892 249.593C313.563 250.501 313.036 251.337 312.309 252.099C311.585 252.862 310.639 253.522 309.471 254.08L308.882 253.181C309.891 252.703 310.719 252.148 311.368 251.515C312.02 250.883 312.502 250.175 312.815 249.394C313.127 248.612 313.284 247.749 313.287 246.804V246.626H314.389ZM313.772 246.626V247.512H309.392V246.626H313.772Z" fill="#36383E" fill-opacity="0.9"/>
<rect x="20" y="314" width="335" height="85" rx="10" fill="white"/>
<path d="M45.98 344.611C46.8598 344.611 47.6252 344.701 48.2762 344.882C48.9273 345.062 49.4284 345.323 49.7797 345.665C50.131 346.007 50.3082 346.413 50.3115 346.883C50.3082 347.351 50.131 347.753 49.7797 348.092C49.4284 348.43 48.9273 348.69 48.2762 348.87C47.6252 349.051 46.8598 349.141 45.98 349.141C45.1066 349.141 44.3444 349.051 43.6934 348.87C43.0456 348.69 42.546 348.43 42.1948 348.092C41.8435 347.753 41.6678 347.351 41.6678 346.883C41.6678 346.413 41.8419 346.007 42.1899 345.665C42.5412 345.323 43.0424 345.062 43.6934 344.882C44.3444 344.701 45.1066 344.611 45.98 344.611ZM45.98 345.593C45.3612 345.596 44.8246 345.649 44.3702 345.752C43.9157 345.855 43.5661 346.003 43.3211 346.197C43.0794 346.387 42.9602 346.616 42.9634 346.883C42.9602 347.144 43.0794 347.368 43.3211 347.555C43.5661 347.742 43.9157 347.886 44.3702 347.985C44.8246 348.082 45.3612 348.131 45.98 348.131C46.602 348.131 47.1402 348.082 47.5946 347.985C48.049 347.886 48.3987 347.742 48.6436 347.555C48.8918 347.368 49.0175 347.144 49.0207 346.883C49.0175 346.616 48.8918 346.387 48.6436 346.197C48.3987 346.003 48.049 345.855 47.5946 345.752C47.1402 345.649 46.602 345.596 45.98 345.593ZM49.6782 337.51V338.554H41.7693V337.51H49.6782ZM51.607 342.542V343.596H40.4689V342.542H51.607ZM46.212 340.246V342.847H44.9358V340.246H46.212ZM50.2196 338.539V338.626C50.2196 339.036 50.2132 339.393 50.2003 339.7C50.1874 340.003 50.1552 340.333 50.1036 340.691C50.0552 341.045 49.9795 341.413 49.8764 341.793L48.6001 341.662C48.7033 341.272 48.7774 340.907 48.8225 340.565C48.8709 340.22 48.8999 339.907 48.9095 339.627C48.9224 339.347 48.9289 338.997 48.9289 338.578V338.539V337.51H50.2196V338.539ZM56.5282 340.526C56.525 341.409 56.3719 342.271 56.0689 343.113C55.766 343.954 55.347 344.7 54.812 345.351C54.277 346.002 53.6727 346.492 52.9992 346.82L52.2402 345.796C52.8461 345.515 53.394 345.093 53.8838 344.529C54.3737 343.965 54.7588 343.332 55.0392 342.629C55.3196 341.927 55.4614 341.226 55.4646 340.526V338.704H56.5282V340.526ZM56.7796 340.526C56.7796 341.206 56.9165 341.878 57.1905 342.542C57.4676 343.203 57.8511 343.794 58.341 344.316C58.8341 344.835 59.3901 345.227 60.0088 345.491L59.2982 346.516C58.6021 346.206 57.9833 345.747 57.4418 345.138C56.9004 344.526 56.4798 343.822 56.1801 343.026C55.8836 342.226 55.737 341.393 55.7402 340.526V338.704H56.7796V340.526ZM59.5738 338.143V339.216H52.6704V338.143H59.5738ZM62.4211 336.91V349.16H61.1159V336.91H62.4211ZM68.1061 340.028C68.1061 340.96 67.9643 341.86 67.6807 342.731C67.4003 343.598 67.0006 344.368 66.4818 345.041C65.9661 345.712 65.3699 346.223 64.6931 346.574L63.8858 345.53C64.5013 345.233 65.0476 344.797 65.5246 344.22C66.0048 343.64 66.377 342.984 66.6413 342.252C66.9088 341.52 67.0441 340.779 67.0474 340.028V337.93H68.1061V340.028ZM68.3381 340.028C68.3349 340.75 68.4622 341.461 68.72 342.16C68.9811 342.856 69.3453 343.482 69.8126 344.036C70.2831 344.587 70.8165 345.009 71.4127 345.302L70.615 346.342C69.9544 346 69.371 345.506 68.865 344.858C68.3591 344.207 67.9691 343.464 67.6952 342.629C67.4244 341.794 67.2907 340.927 67.2939 340.028V337.93H68.3381V340.028ZM73.6365 336.91V349.16H72.336V336.91H73.6365ZM75.5992 341.798V342.905H73.3464V341.798H75.5992ZM85.5382 336.91V344.771H84.2378V336.91H85.5382ZM87.3124 340.227V341.324H85.1757V340.227H87.3124ZM81.6225 344.867C82.454 344.867 83.1727 344.953 83.7786 345.124C84.3877 345.294 84.855 345.541 85.1805 345.863C85.5092 346.182 85.6736 346.566 85.6736 347.014C85.6736 347.455 85.5092 347.836 85.1805 348.155C84.855 348.477 84.3877 348.722 83.7786 348.89C83.1695 349.057 82.4508 349.141 81.6225 349.141C80.7846 349.141 80.0594 349.057 79.4471 348.89C78.838 348.722 78.3707 348.477 78.0452 348.155C77.7196 347.836 77.5585 347.455 77.5617 347.014C77.5585 346.566 77.7196 346.182 78.0452 345.863C78.3707 345.541 78.838 345.294 79.4471 345.124C80.0594 344.953 80.7846 344.867 81.6225 344.867ZM81.6225 345.873C81.0327 345.873 80.53 345.918 80.1142 346.008C79.6985 346.095 79.3826 346.224 79.1667 346.395C78.9508 346.563 78.8444 346.769 78.8476 347.014C78.8444 347.252 78.9524 347.457 79.1715 347.628C79.3907 347.799 79.7081 347.927 80.1239 348.015C80.5396 348.105 81.0392 348.148 81.6225 348.145C82.1994 348.148 82.6941 348.105 83.1066 348.015C83.5224 347.927 83.8382 347.799 84.0541 347.628C84.2701 347.457 84.378 347.252 84.378 347.014C84.378 346.769 84.2701 346.563 84.0541 346.395C83.8382 346.224 83.524 346.095 83.1115 346.008C82.7022 345.918 82.2058 345.873 81.6225 345.873ZM83.2178 338.23V339.255H75.9278V338.23H83.2178ZM79.5776 339.816C80.1609 339.816 80.6766 339.906 81.1246 340.086C81.5725 340.267 81.9206 340.521 82.1688 340.85C82.4169 341.179 82.5426 341.559 82.5458 341.991C82.5426 342.426 82.4169 342.808 82.1688 343.137C81.9206 343.462 81.5725 343.715 81.1246 343.896C80.6766 344.073 80.1609 344.162 79.5776 344.162C78.9878 344.162 78.4673 344.073 78.0161 343.896C77.565 343.715 77.2153 343.462 76.9671 343.137C76.719 342.808 76.5949 342.426 76.5949 341.991C76.5949 341.559 76.719 341.179 76.9671 340.85C77.2153 340.521 77.5633 340.267 78.0113 340.086C78.4625 339.906 78.9846 339.816 79.5776 339.816ZM79.5776 340.773C79.2328 340.776 78.9282 340.828 78.6639 340.927C78.3997 341.027 78.1966 341.169 78.0548 341.353C77.913 341.537 77.8437 341.749 77.8469 341.991C77.8437 342.233 77.913 342.444 78.0548 342.624C78.1966 342.802 78.3997 342.939 78.6639 343.035C78.9282 343.129 79.2328 343.175 79.5776 343.175C79.9225 343.175 80.2254 343.129 80.4865 343.035C80.7475 342.939 80.9505 342.802 81.0956 342.624C81.2406 342.444 81.3147 342.233 81.3179 341.991C81.3147 341.749 81.2406 341.537 81.0956 341.353C80.9505 341.169 80.7475 341.027 80.4865 340.927C80.2254 340.828 79.9225 340.776 79.5776 340.773ZM80.2254 336.823V338.805H78.9347V336.823H80.2254Z" fill="#36383E" fill-opacity="0.8"/>
<rect x="262" y="332" width="73" height="40" rx="9" fill="#36383E" fill-opacity="0.05"/>
<path d="M287.973 352.344H278.387V351.424H287.973V352.344ZM286.859 350.51H279.588V349.613H286.859V350.51ZM286.795 347.785H280.684V350.053H279.588V346.871H286.795V347.785ZM283.168 353.164C283.922 353.164 284.57 353.238 285.113 353.387C285.66 353.535 286.076 353.752 286.361 354.037C286.65 354.322 286.795 354.666 286.795 355.068C286.795 355.475 286.65 355.82 286.361 356.105C286.076 356.391 285.662 356.607 285.119 356.756C284.576 356.904 283.926 356.979 283.168 356.979C282.41 356.979 281.758 356.904 281.211 356.756C280.664 356.607 280.246 356.391 279.957 356.105C279.668 355.82 279.523 355.475 279.523 355.068C279.523 354.666 279.668 354.322 279.957 354.037C280.246 353.752 280.664 353.535 281.211 353.387C281.758 353.238 282.41 353.164 283.168 353.164ZM283.168 354.02C282.633 354.02 282.178 354.062 281.803 354.148C281.428 354.23 281.143 354.35 280.947 354.506C280.752 354.658 280.654 354.846 280.654 355.068C280.654 355.291 280.752 355.48 280.947 355.637C281.143 355.793 281.428 355.912 281.803 355.994C282.178 356.072 282.633 356.111 283.168 356.111C283.703 356.111 284.156 356.072 284.527 355.994C284.902 355.912 285.188 355.793 285.383 355.637C285.578 355.48 285.676 355.291 285.676 355.068C285.676 354.846 285.578 354.658 285.383 354.506C285.188 354.35 284.902 354.23 284.527 354.148C284.152 354.062 283.699 354.02 283.168 354.02ZM298.115 353.135H288.506V352.227H298.115V353.135ZM296.903 349.385H290.844V350.715H289.742V348.564H295.789V347.627H289.713V346.736H296.903V349.385ZM297.119 351.236H289.742V350.363H297.119V351.236ZM293.856 352.695H292.76V350.791H293.856V352.695ZM296.961 356.914H295.842V354.758H289.578V353.867H296.961V356.914ZM306.829 356.99H305.727V346.49H306.829V356.99ZM308.522 351.67H306.577V350.75H308.522V351.67ZM304.813 349.045H298.59V348.137H304.813V349.045ZM301.749 349.824C302.249 349.824 302.696 349.928 303.09 350.135C303.489 350.342 303.799 350.631 304.022 351.002C304.249 351.373 304.362 351.793 304.362 352.262C304.362 352.734 304.249 353.156 304.022 353.527C303.799 353.898 303.489 354.188 303.09 354.395C302.696 354.602 302.249 354.705 301.749 354.705C301.245 354.705 300.795 354.602 300.401 354.395C300.006 354.188 299.696 353.898 299.469 353.527C299.247 353.156 299.135 352.734 299.135 352.262C299.135 351.793 299.247 351.373 299.469 351.002C299.696 350.631 300.006 350.342 300.401 350.135C300.795 349.928 301.245 349.824 301.749 349.824ZM301.749 350.744C301.452 350.744 301.186 350.809 300.952 350.938C300.717 351.062 300.532 351.24 300.395 351.471C300.262 351.701 300.196 351.965 300.196 352.262C300.196 352.562 300.262 352.826 300.395 353.053C300.532 353.279 300.717 353.457 300.952 353.586C301.186 353.711 301.452 353.773 301.749 353.773C302.045 353.773 302.311 353.711 302.545 353.586C302.78 353.457 302.963 353.279 303.096 353.053C303.229 352.826 303.295 352.562 303.295 352.262C303.295 351.965 303.229 351.701 303.096 351.471C302.963 351.24 302.78 351.062 302.545 350.938C302.311 350.809 302.045 350.744 301.749 350.744ZM302.293 348.523H301.186V346.631H302.293V348.523ZM317.51 356.99H316.385V346.49H317.51V356.99ZM314.393 347.621C314.393 348.691 314.227 349.682 313.895 350.592C313.567 351.498 313.04 352.334 312.313 353.1C311.587 353.861 310.641 354.521 309.477 355.08L308.88 354.178C309.891 353.701 310.721 353.146 311.37 352.514C312.022 351.881 312.505 351.174 312.817 350.393C313.13 349.611 313.286 348.748 313.286 347.803V347.621H314.393ZM313.766 348.512H309.389V347.621H313.766V348.512Z" fill="#36383E" fill-opacity="0.9"/>
<rect x="20" y="415" width="335" height="85" rx="10" fill="white"/>
<path d="M50.6015 437.91V450.184H49.2963V437.91H50.6015ZM44.0414 438.829C44.6506 438.829 45.1936 439.006 45.6706 439.36C46.1508 439.715 46.5262 440.218 46.797 440.869C47.0677 441.517 47.203 442.269 47.203 443.126C47.203 443.99 47.0677 444.747 46.797 445.398C46.5262 446.049 46.1508 446.552 45.6706 446.907C45.1936 447.258 44.6506 447.434 44.0414 447.434C43.4291 447.434 42.8828 447.258 42.4026 446.907C41.9256 446.552 41.5518 446.051 41.2811 445.403C41.0104 444.752 40.875 443.993 40.875 443.126C40.875 442.266 41.0104 441.512 41.2811 440.864C41.5518 440.213 41.9256 439.712 42.4026 439.36C42.8828 439.006 43.4291 438.829 44.0414 438.829ZM44.0414 439.989C43.6676 439.992 43.3356 440.121 43.0456 440.376C42.7555 440.63 42.5299 440.994 42.3688 441.468C42.2076 441.942 42.1271 442.495 42.1271 443.126C42.1271 443.765 42.2076 444.32 42.3688 444.794C42.5299 445.268 42.7555 445.632 43.0456 445.887C43.3356 446.141 43.6676 446.269 44.0414 446.269C44.4185 446.269 44.7488 446.141 45.0325 445.887C45.3193 445.632 45.5433 445.268 45.7044 444.794C45.8656 444.32 45.9461 443.765 45.9461 443.126C45.9461 442.495 45.8656 441.942 45.7044 441.468C45.5433 440.994 45.3193 440.63 45.0325 440.376C44.7456 440.121 44.4153 439.992 44.0414 439.989ZM62.7112 437.91V447.202H61.4833V437.91H62.7112ZM59.4577 441.41V442.469H57.234V441.41H59.4577ZM60.3231 438.137V446.825H59.0903V438.137H60.3231ZM54.0192 438.882V440.888H56.388V438.882H57.5965V444.939H52.7913V438.882H54.0192ZM54.0192 443.881H56.388V441.889H54.0192V443.881ZM63.0689 448.845V449.909H54.5896V448.845H63.0689ZM55.8852 445.959V449.43H54.5896V445.959H55.8852ZM74.0329 444.432V445.476H65.5004V444.432H74.0329ZM75.3043 447.55V448.623H64.0936V447.55H75.3043ZM73.912 438.921V439.984H66.8105V444.736H65.5004V438.921H73.912ZM73.6413 441.628V442.662H66.4141V441.628H73.6413Z" fill="#36383E" fill-opacity="0.8"/>
<rect x="262" y="433" width="73" height="40" rx="9" fill="#36383E" fill-opacity="0.05"/>
<path d="M287.973 453.344H278.387V452.424H287.973V453.344ZM286.859 451.51H279.588V450.613H286.859V451.51ZM286.795 448.785H280.684V451.053H279.588V447.871H286.795V448.785ZM283.168 454.164C283.922 454.164 284.57 454.238 285.113 454.387C285.66 454.535 286.076 454.752 286.361 455.037C286.65 455.322 286.795 455.666 286.795 456.068C286.795 456.475 286.65 456.82 286.361 457.105C286.076 457.391 285.662 457.607 285.119 457.756C284.576 457.904 283.926 457.979 283.168 457.979C282.41 457.979 281.758 457.904 281.211 457.756C280.664 457.607 280.246 457.391 279.957 457.105C279.668 456.82 279.523 456.475 279.523 456.068C279.523 455.666 279.668 455.322 279.957 455.037C280.246 454.752 280.664 454.535 281.211 454.387C281.758 454.238 282.41 454.164 283.168 454.164ZM283.168 455.02C282.633 455.02 282.178 455.062 281.803 455.148C281.428 455.23 281.143 455.35 280.947 455.506C280.752 455.658 280.654 455.846 280.654 456.068C280.654 456.291 280.752 456.48 280.947 456.637C281.143 456.793 281.428 456.912 281.803 456.994C282.178 457.072 282.633 457.111 283.168 457.111C283.703 457.111 284.156 457.072 284.527 456.994C284.902 456.912 285.188 456.793 285.383 456.637C285.578 456.48 285.676 456.291 285.676 456.068C285.676 455.846 285.578 455.658 285.383 455.506C285.188 455.35 284.902 455.23 284.527 455.148C284.152 455.062 283.699 455.02 283.168 455.02ZM298.115 454.135H288.506V453.227H298.115V454.135ZM296.903 450.385H290.844V451.715H289.742V449.564H295.789V448.627H289.713V447.736H296.903V450.385ZM297.119 452.236H289.742V451.363H297.119V452.236ZM293.856 453.695H292.76V451.791H293.856V453.695ZM296.961 457.914H295.842V455.758H289.578V454.867H296.961V457.914ZM306.829 457.99H305.727V447.49H306.829V457.99ZM308.522 452.67H306.577V451.75H308.522V452.67ZM304.813 450.045H298.59V449.137H304.813V450.045ZM301.749 450.824C302.249 450.824 302.696 450.928 303.09 451.135C303.489 451.342 303.799 451.631 304.022 452.002C304.249 452.373 304.362 452.793 304.362 453.262C304.362 453.734 304.249 454.156 304.022 454.527C303.799 454.898 303.489 455.188 303.09 455.395C302.696 455.602 302.249 455.705 301.749 455.705C301.245 455.705 300.795 455.602 300.401 455.395C300.006 455.188 299.696 454.898 299.469 454.527C299.247 454.156 299.135 453.734 299.135 453.262C299.135 452.793 299.247 452.373 299.469 452.002C299.696 451.631 300.006 451.342 300.401 451.135C300.795 450.928 301.245 450.824 301.749 450.824ZM301.749 451.744C301.452 451.744 301.186 451.809 300.952 451.938C300.717 452.062 300.532 452.24 300.395 452.471C300.262 452.701 300.196 452.965 300.196 453.262C300.196 453.562 300.262 453.826 300.395 454.053C300.532 454.279 300.717 454.457 300.952 454.586C301.186 454.711 301.452 454.773 301.749 454.773C302.045 454.773 302.311 454.711 302.545 454.586C302.78 454.457 302.963 454.279 303.096 454.053C303.229 453.826 303.295 453.562 303.295 453.262C303.295 452.965 303.229 452.701 303.096 452.471C302.963 452.24 302.78 452.062 302.545 451.938C302.311 451.809 302.045 451.744 301.749 451.744ZM302.293 449.523H301.186V447.631H302.293V449.523ZM317.51 457.99H316.385V447.49H317.51V457.99ZM314.393 448.621C314.393 449.691 314.227 450.682 313.895 451.592C313.567 452.498 313.04 453.334 312.313 454.1C311.587 454.861 310.641 455.521 309.477 456.08L308.88 455.178C309.891 454.701 310.721 454.146 311.37 453.514C312.022 452.881 312.505 452.174 312.817 451.393C313.13 450.611 313.286 449.748 313.286 448.803V448.621H314.393ZM313.766 449.512H309.389V448.621H313.766V449.512Z" fill="#36383E" fill-opacity="0.9"/>
</g>
<defs>
<clipPath id="clip0_777_8259">
<rect width="375" height="812" fill="white"/>
</clipPath>
</defs>
</svg>
