<svg width="375" height="812" viewBox="0 0 375 812" fill="none" xmlns="http://www.w3.org/2000/svg">
<g clip-path="url(#clip0_777_8160)">
<rect width="375" height="812" fill="white"/>
<rect width="375" height="44" fill="white"/>
<rect opacity="0.35" x="336.833" y="17.8334" width="21" height="10.3333" rx="2.16667" stroke="black"/>
<path opacity="0.4" d="M359.333 21V25C360.138 24.6612 360.661 23.8731 360.661 23C360.661 22.1269 360.138 21.3388 359.333 21Z" fill="black"/>
<rect x="338.333" y="19.3334" width="18" height="7.33333" rx="1.33333" fill="black"/>
<path fill-rule="evenodd" clip-rule="evenodd" d="M321.448 25.7574C322.729 24.6751 324.605 24.6751 325.886 25.7574C325.95 25.8156 325.987 25.8982 325.989 25.9849C325.991 26.0716 325.956 26.1547 325.895 26.2154L323.89 28.2378C323.831 28.2972 323.751 28.3306 323.667 28.3306C323.583 28.3306 323.503 28.2973 323.444 28.2378L321.438 26.2154C321.377 26.1547 321.343 26.0713 321.345 25.9849C321.347 25.8982 321.384 25.8155 321.448 25.7574ZM318.772 23.0601C321.532 20.4957 325.804 20.4958 328.563 23.0601C328.626 23.1202 328.661 23.2031 328.662 23.2896C328.663 23.376 328.629 23.4588 328.568 23.5201L327.409 24.691C327.29 24.8103 327.097 24.8121 326.975 24.6959C326.069 23.8761 324.889 23.4223 323.667 23.4224C322.446 23.4229 321.268 23.8768 320.362 24.6959C320.24 24.8122 320.046 24.8105 319.927 24.691L318.769 23.5201C318.707 23.4589 318.673 23.376 318.674 23.2896C318.675 23.2031 318.71 23.1202 318.772 23.0601ZM316.097 20.3697C320.328 16.3176 327.004 16.3178 331.236 20.3697C331.298 20.4299 331.333 20.5123 331.333 20.5982C331.333 20.684 331.3 20.7668 331.239 20.8277L330.079 21.9976C329.96 22.1177 329.765 22.1188 329.644 22.0005C328.031 20.4691 325.892 19.6149 323.667 19.6148C321.442 19.6148 319.302 20.4689 317.689 22.0005C317.568 22.1189 317.374 22.1177 317.255 21.9976L316.094 20.8277C316.033 20.7668 316 20.6839 316 20.5982C316.001 20.5123 316.035 20.4298 316.097 20.3697Z" fill="black"/>
<path d="M296 24.3336C296.552 24.3336 297 24.7813 297 25.3336V27.3336C297 27.8858 296.552 28.3336 296 28.3336H295C294.448 28.3336 294 27.8858 294 27.3336V25.3336C294 24.7813 294.448 24.3336 295 24.3336H296ZM300.667 22.3336C301.219 22.3338 301.667 22.7814 301.667 23.3336V27.3336C301.667 27.8856 301.219 28.3334 300.667 28.3336H299.667C299.115 28.3336 298.667 27.8858 298.667 27.3336V23.3336C298.667 22.7813 299.115 22.3336 299.667 22.3336H300.667ZM305.333 19.9996C305.885 19.9996 306.333 20.4475 306.333 20.9996V27.3336C306.333 27.8858 305.885 28.3336 305.333 28.3336H304.333C303.781 28.3334 303.333 27.8856 303.333 27.3336V20.9996C303.333 20.4476 303.781 19.9998 304.333 19.9996H305.333ZM310 17.6666C310.552 17.6666 311 18.1143 311 18.6666V27.3336C311 27.8858 310.552 28.3336 310 28.3336H309C308.448 28.3336 308 27.8858 308 27.3336V18.6666C308 18.1143 308.448 17.6666 309 17.6666H310Z" fill="black"/>
<path d="M37.1246 17.1675C39.3805 17.1675 41.3434 18.7715 41.3434 22.5801V22.5947C41.3434 26.1543 39.7394 28.2637 37.0807 28.2637C35.1398 28.2637 33.6896 27.1138 33.3527 25.4951L33.338 25.4146H35.1984L35.2204 25.4878C35.4987 26.2275 36.1505 26.7109 37.0807 26.7109C38.7579 26.7109 39.4684 25.0703 39.549 23.0488C39.549 22.9683 39.5563 22.8877 39.5563 22.8071H39.4098C39.0216 23.6421 38.0988 24.3818 36.6486 24.3818C34.6198 24.3818 33.1989 22.9023 33.1989 20.8955V20.8809C33.1989 18.7349 34.8322 17.1675 37.1246 17.1675ZM37.1173 22.9316C38.3112 22.9316 39.2267 22.0674 39.2267 20.8735V20.8589C39.2267 19.6504 38.3112 18.7056 37.1393 18.7056C35.9747 18.7056 35.0446 19.6357 35.0446 20.8149V20.8296C35.0446 22.0527 35.9162 22.9316 37.1173 22.9316ZM44.4286 21.1519C43.7621 21.1519 43.264 20.6392 43.264 19.9946C43.264 19.3428 43.7621 18.8374 44.4286 18.8374C45.1024 18.8374 45.5931 19.3428 45.5931 19.9946C45.5931 20.6392 45.1024 21.1519 44.4286 21.1519ZM44.4286 26.5864C43.7621 26.5864 43.264 26.0811 43.264 25.4292C43.264 24.7773 43.7621 24.272 44.4286 24.272C45.1024 24.272 45.5931 24.7773 45.5931 25.4292C45.5931 26.0811 45.1024 26.5864 44.4286 26.5864ZM52.6407 28V25.9712H47.4698V24.4258C48.8395 22.0454 50.3409 19.6138 51.7765 17.4312H54.4498V24.4111H55.8707V25.9712H54.4498V28H52.6407ZM49.2277 24.4551H52.67V18.9399H52.5602C51.4762 20.5952 50.253 22.5508 49.2277 24.3452V24.4551ZM60.0106 28V19.2915H59.8861L57.2567 21.1519V19.3721L60.0179 17.4312H61.9003V28H60.0106Z" fill="black"/>
<rect width="375" height="44" transform="translate(0 44)" fill="white"/>
<path d="M35 59L28 66L35 73" stroke="#292A2E" stroke-width="2" stroke-linecap="round" stroke-linejoin="round"/>
<path d="M164.456 60.9006V69.6354H159.02V60.9006H164.456ZM160.417 62.0773V68.4586H163.064V62.0773H160.417ZM170.589 59.326V73.326H169.163V59.326H170.589ZM166.953 64.5414V65.7624H163.727V64.5414H166.953ZM167.743 59.5967V72.6354H166.329V59.5967H167.743ZM183.345 63.9503V65.1602H173.655V63.9503H183.345ZM175.146 60.011V64.5414H173.655V60.011H175.146ZM184.821 67.0442V68.2486H172.058V67.0442H184.821ZM176.743 67.4917V73.326H175.257V67.4917H176.743ZM181.627 67.4917V73.326H180.135V67.4917H181.627ZM196.252 68.221V73.3481H194.793V68.221H196.252ZM201.915 67.7624V68.989H189.152V67.7624H201.915ZM196.092 62.116C196.092 62.9006 195.841 63.6206 195.34 64.2762C194.843 64.9319 194.165 65.4788 193.307 65.9171C192.449 66.3554 191.493 66.6483 190.44 66.7956L189.898 65.6133C190.793 65.4991 191.613 65.2689 192.357 64.9227C193.105 64.5727 193.696 64.151 194.13 63.6575C194.569 63.1602 194.79 62.6464 194.793 62.116V61.7569H196.092V62.116ZM196.268 62.116C196.268 62.6427 196.484 63.1529 196.915 63.6464C197.346 64.14 197.933 64.5635 198.677 64.9171C199.425 65.267 200.246 65.4991 201.141 65.6133L200.6 66.7956C199.547 66.6483 198.593 66.3536 197.738 65.9116C196.884 65.4659 196.208 64.9153 195.71 64.2597C195.213 63.6004 194.965 62.8858 194.965 62.116V61.7569H196.268V62.116ZM200.699 61.0221V62.2155H190.357V61.0221H200.699ZM196.252 59.326V61.4365H194.793V59.326H196.252ZM213.567 59.326V73.3094H212.08V59.326H213.567ZM215.738 64.9061V66.1492H213.18V64.9061H215.738ZM209.904 60.8066C209.9 62.2026 209.679 63.512 209.241 64.7348C208.806 65.954 208.114 67.0737 207.163 68.0939C206.213 69.1142 204.99 69.9926 203.495 70.7293L202.666 69.5801C203.948 68.9392 205.016 68.1952 205.871 67.3481C206.729 66.5009 207.371 65.5525 207.799 64.5028C208.226 63.453 208.44 62.3039 208.44 61.0552V60.8066H209.904ZM209.196 60.8066V62.0331H203.368V60.8066H209.196Z" fill="#36383E"/>
<rect x="145" y="112.5" width="85" height="85" rx="15.5" fill="white"/>
<rect x="145" y="112.5" width="85" height="85" rx="15.5" stroke="#C8C9CD"/>
<path fill-rule="evenodd" clip-rule="evenodd" d="M183.427 159H191.574C197.296 159 200.158 159 202.213 157.652C203.1 157.072 203.864 156.321 204.46 155.445C205.834 153.428 205.834 150.618 205.834 145.001C205.834 139.383 205.834 136.573 204.46 134.556C203.864 133.68 203.1 132.93 202.213 132.349C200.893 131.482 199.239 131.172 196.707 131.062C195.499 131.062 194.46 130.163 194.223 128.999C194.042 128.147 193.573 127.382 192.894 126.836C192.215 126.289 191.368 125.994 190.496 126H184.505C182.693 126 181.133 127.256 180.777 128.999C180.541 130.163 179.501 131.062 178.293 131.062C175.763 131.172 174.11 131.483 172.788 132.349C171.901 132.93 171.138 133.68 170.542 134.556C169.167 136.573 169.167 139.381 169.167 145.001C169.167 150.62 169.167 153.427 170.54 155.445C171.134 156.318 171.897 157.068 172.788 157.652C174.843 159 177.705 159 183.427 159ZM187.5 137.5C183.282 137.5 179.861 140.857 179.861 144.999C179.861 149.14 183.284 152.503 187.5 152.503C191.717 152.503 195.14 149.144 195.14 145.002C195.14 140.861 191.717 137.5 187.5 137.5ZM187.5 140.5C184.97 140.5 182.917 142.515 182.917 145.001C182.917 147.485 184.97 149.5 187.5 149.5C190.03 149.5 192.084 147.485 192.084 145.001C192.084 142.516 190.03 140.5 187.5 140.5ZM196.157 139C196.157 138.171 196.841 137.5 197.686 137.5H199.721C200.565 137.5 201.25 138.171 201.25 139C201.246 139.401 201.083 139.785 200.797 140.066C200.511 140.347 200.124 140.503 199.723 140.5H197.686C197.487 140.502 197.29 140.464 197.106 140.39C196.921 140.316 196.753 140.206 196.611 140.067C196.469 139.927 196.356 139.762 196.278 139.579C196.2 139.396 196.159 139.199 196.157 139Z" fill="#92949D"/>
<path d="M181.82 183.637C181.059 183.637 180.408 183.438 179.865 183.042C179.323 182.646 178.908 182.067 178.621 181.306C178.334 180.545 178.19 179.626 178.19 178.551C178.19 177.484 178.334 176.571 178.621 175.81C178.908 175.049 179.325 174.467 179.872 174.066C180.419 173.665 181.068 173.465 181.82 173.465C182.572 173.465 183.222 173.665 183.769 174.066C184.315 174.467 184.732 175.049 185.02 175.81C185.307 176.571 185.45 177.484 185.45 178.551C185.45 179.626 185.307 180.545 185.02 181.306C184.737 182.067 184.322 182.646 183.775 183.042C183.233 183.438 182.581 183.637 181.82 183.637ZM181.82 182.345C182.262 182.345 182.643 182.199 182.962 181.907C183.285 181.616 183.532 181.187 183.7 180.622C183.869 180.052 183.951 179.362 183.946 178.551C183.946 177.74 183.862 177.049 183.693 176.479C183.525 175.91 183.281 175.477 182.962 175.181C182.643 174.884 182.262 174.736 181.82 174.736C181.378 174.736 180.998 174.884 180.679 175.181C180.36 175.477 180.114 175.91 179.94 176.479C179.767 177.049 179.681 177.74 179.681 178.551C179.681 179.362 179.765 180.052 179.934 180.622C180.102 181.187 180.348 181.616 180.672 181.907C180.995 182.199 181.378 182.345 181.82 182.345ZM187.33 184.99H186.045L189.231 173.137H190.53L187.33 184.99ZM195.069 183.5H193.551V175.112H193.497L191.138 176.657V175.215L193.592 173.602H195.069V183.5Z" fill="#92949D"/>
<path d="M24.8191 226.675V233.227H20.7417V226.675H24.8191ZM21.7901 227.558V232.344H23.7749V227.558H21.7901ZM29.4185 225.494V235.994H28.3494V225.494H29.4185ZM26.692 229.406V230.322H24.2721V229.406H26.692ZM27.2845 225.698V235.477H26.2238V225.698H27.2845ZM38.9861 228.963V229.87H31.7181V228.963H38.9861ZM32.8369 226.008V229.406H31.7181V226.008H32.8369ZM40.0924 231.283V232.186H30.5206V231.283H40.0924ZM34.0344 231.619V235.994H32.9198V231.619H34.0344ZM37.6974 231.619V235.994H36.5786V231.619H37.6974Z" fill="#36383E" fill-opacity="0.7"/>
<rect x="20.5" y="244.5" width="334" height="43" rx="10.5" fill="white"/>
<rect x="20.5" y="244.5" width="334" height="43" rx="10.5" stroke="#D2D4DA"/>
<path d="M41.6222 261.788V269.431H36.8653V261.788H41.6222ZM38.0884 262.818V268.401H40.404V262.818H38.0884ZM46.9883 260.41V272.66H45.741V260.41H46.9883ZM43.8073 264.974V266.042H40.9841V264.974H43.8073ZM44.4986 260.647V272.056H43.261V260.647H44.4986ZM58.1504 264.456V265.515H49.6711V264.456H58.1504ZM50.9764 261.01V264.974H49.6711V261.01H50.9764ZM59.4412 267.164V268.218H48.274V267.164H59.4412ZM52.3735 267.555V272.66H51.0731V267.555H52.3735ZM56.647 267.555V272.66H55.3417V267.555H56.647ZM73.3787 260.41V272.684H72.0735V260.41H73.3787ZM66.8186 261.329C67.4277 261.329 67.9708 261.506 68.4478 261.86C68.928 262.215 69.3034 262.718 69.5741 263.369C69.8449 264.017 69.9802 264.769 69.9802 265.626C69.9802 266.49 69.8449 267.247 69.5741 267.898C69.3034 268.549 68.928 269.052 68.4478 269.407C67.9708 269.758 67.4277 269.934 66.8186 269.934C66.2063 269.934 65.66 269.758 65.1798 269.407C64.7028 269.052 64.329 268.551 64.0583 267.903C63.7875 267.252 63.6522 266.493 63.6522 265.626C63.6522 264.766 63.7875 264.012 64.0583 263.364C64.329 262.713 64.7028 262.212 65.1798 261.86C65.66 261.506 66.2063 261.329 66.8186 261.329ZM66.8186 262.489C66.4448 262.492 66.1128 262.621 65.8228 262.876C65.5327 263.13 65.3071 263.494 65.146 263.968C64.9848 264.442 64.9043 264.995 64.9043 265.626C64.9043 266.265 64.9848 266.82 65.146 267.294C65.3071 267.768 65.5327 268.132 65.8228 268.387C66.1128 268.641 66.4448 268.769 66.8186 268.769C67.1957 268.769 67.526 268.641 67.8096 268.387C68.0965 268.132 68.3205 267.768 68.4816 267.294C68.6427 266.82 68.7233 266.265 68.7233 265.626C68.7233 264.995 68.6427 264.442 68.4816 263.968C68.3205 263.494 68.0965 263.13 67.8096 262.876C67.5228 262.621 67.1925 262.492 66.8186 262.489ZM86.2425 266.69V267.734H75.0319V266.69H86.2425ZM84.8309 260.686V263.702H77.7584V265.24H76.4725V262.75H83.5353V261.711H76.4386V260.686H84.8309ZM85.0823 264.756V265.762H76.4725V264.756H85.0823ZM84.8503 268.73V272.506H76.5305V268.73H84.8503ZM77.8019 269.769V271.452H83.5692V269.769H77.8019ZM92.4447 260.613C93.3665 260.613 94.1528 260.694 94.8038 260.855C95.4581 261.016 95.956 261.255 96.2976 261.57C96.6425 261.883 96.8149 262.265 96.8149 262.716C96.8149 263.174 96.6425 263.562 96.2976 263.881C95.956 264.197 95.4581 264.437 94.8038 264.602C94.1528 264.763 93.3665 264.845 92.4447 264.848C91.523 264.845 90.7334 264.763 90.0759 264.602C89.4217 264.437 88.9222 264.197 88.5773 263.881C88.2357 263.562 88.0649 263.174 88.0649 262.716C88.0649 262.268 88.2373 261.886 88.5822 261.57C88.927 261.255 89.4265 261.016 90.0808 260.855C90.735 260.694 91.523 260.613 92.4447 260.613ZM92.4447 261.58C91.8002 261.577 91.2507 261.622 90.7962 261.715C90.3418 261.806 89.9986 261.936 89.7665 262.107C89.5345 262.275 89.4201 262.478 89.4233 262.716C89.4201 262.968 89.5345 263.18 89.7665 263.354C89.9986 263.525 90.3386 263.654 90.7866 263.741C91.2345 263.828 91.7873 263.872 92.4447 263.872C93.1086 263.872 93.6646 263.828 94.1125 263.741C94.5637 263.654 94.9054 263.525 95.1374 263.354C95.3694 263.18 95.4855 262.968 95.4855 262.716C95.4855 262.478 95.3678 262.275 95.1326 262.107C94.9005 261.936 94.5557 261.806 94.098 261.715C93.6436 261.625 93.0925 261.58 92.4447 261.58ZM98.038 265.593V266.632H86.8708V265.593H98.038ZM96.6215 267.575V270.441H89.4958V271.809H88.2244V269.508H95.3453V268.546H88.2002V267.575H96.6215ZM96.9744 271.539V272.544H88.2244V271.539H96.9744ZM111.99 260.41V266.985H110.69V260.41H111.99ZM105.241 267.579V268.952H110.699V267.579H111.99V272.506H103.97V267.579H105.241ZM105.241 271.447H110.699V269.977H105.241V271.447ZM105.338 260.976C105.957 260.973 106.513 261.09 107.006 261.329C107.502 261.567 107.891 261.904 108.171 262.339C108.451 262.774 108.592 263.269 108.592 263.823C108.592 264.371 108.451 264.861 108.171 265.293C107.891 265.725 107.502 266.06 107.006 266.298C106.513 266.537 105.957 266.654 105.338 266.651C104.719 266.654 104.162 266.537 103.665 266.298C103.169 266.06 102.779 265.725 102.496 265.293C102.215 264.861 102.075 264.371 102.075 263.823C102.075 263.269 102.215 262.774 102.496 262.339C102.779 261.904 103.169 261.567 103.665 261.329C104.162 261.09 104.719 260.973 105.338 260.976ZM105.338 262.068C104.951 262.065 104.606 262.138 104.304 262.286C104.001 262.431 103.764 262.637 103.593 262.905C103.425 263.172 103.343 263.478 103.346 263.823C103.343 264.168 103.425 264.474 103.593 264.742C103.764 265.006 104.001 265.212 104.304 265.36C104.606 265.506 104.951 265.58 105.338 265.583C105.718 265.58 106.058 265.506 106.358 265.36C106.661 265.212 106.896 265.006 107.064 264.742C107.235 264.474 107.32 264.168 107.32 263.823C107.32 263.478 107.235 263.172 107.064 262.905C106.896 262.637 106.661 262.431 106.358 262.286C106.058 262.138 105.718 262.065 105.338 262.068ZM115.04 266.419C116.323 266.419 117.314 266.4 118.013 266.361C118.716 266.323 119.414 266.239 120.107 266.11L120.232 267.169C119.523 267.288 118.806 267.367 118.081 267.405C117.359 267.441 116.346 267.46 115.04 267.463H114.156V266.419H115.04ZM119.478 261.15V264.718H115.442V267.062H114.156V263.731H118.187V262.184H114.131V261.15H119.478ZM123.858 260.42V267.952H122.562V260.42H123.858ZM122.833 262.204V263.243H120.256V262.204H122.833ZM122.833 264.756V265.805H120.256V264.756H122.833ZM123.858 268.575V272.675H122.562V269.624H115.538V268.575H123.858ZM131.515 262.441V263.49H125.439V262.441H131.515ZM128.489 264.224C128.998 264.224 129.454 264.345 129.857 264.587C130.263 264.829 130.579 265.164 130.805 265.593C131.033 266.018 131.149 266.501 131.153 267.043C131.149 267.594 131.033 268.087 130.805 268.522C130.579 268.954 130.263 269.291 129.857 269.532C129.454 269.771 128.998 269.89 128.489 269.89C127.98 269.89 127.524 269.769 127.121 269.528C126.718 269.283 126.402 268.946 126.173 268.517C125.945 268.085 125.832 267.594 125.835 267.043C125.832 266.501 125.945 266.018 126.173 265.593C126.402 265.164 126.718 264.829 127.121 264.587C127.524 264.345 127.98 264.224 128.489 264.224ZM128.489 265.307C128.196 265.311 127.935 265.386 127.706 265.535C127.477 265.68 127.298 265.884 127.169 266.148C127.04 266.41 126.976 266.708 126.976 267.043C126.976 267.388 127.04 267.692 127.169 267.956C127.298 268.218 127.477 268.421 127.706 268.566C127.935 268.707 128.196 268.777 128.489 268.773C128.779 268.777 129.039 268.707 129.267 268.566C129.496 268.421 129.675 268.216 129.804 267.952C129.936 267.687 130.002 267.384 130.002 267.043C130.002 266.708 129.936 266.41 129.804 266.148C129.675 265.884 129.496 265.68 129.267 265.535C129.039 265.386 128.779 265.311 128.489 265.307ZM135.958 260.41V272.66H134.72V260.41H135.958ZM135.126 265.515V266.574H132.874V265.515H135.126ZM133.309 260.686V272.085H132.086V260.686H133.309ZM129.132 260.773V263.093H127.846V260.773H129.132ZM143.267 262.136C143.264 262.848 143.045 263.503 142.61 264.099C142.178 264.692 141.593 265.186 140.855 265.583C140.117 265.976 139.298 266.244 138.399 266.385L137.911 265.36C138.675 265.257 139.379 265.046 140.023 264.727C140.671 264.405 141.184 264.018 141.561 263.567C141.941 263.113 142.133 262.636 142.136 262.136V261.672H143.267V262.136ZM143.606 262.136C143.602 262.636 143.789 263.113 144.166 263.567C144.547 264.018 145.061 264.405 145.709 264.727C146.356 265.046 147.065 265.257 147.836 265.36L147.357 266.385C146.451 266.244 145.628 265.976 144.887 265.583C144.145 265.186 143.557 264.692 143.122 264.099C142.69 263.506 142.474 262.852 142.474 262.136V261.672H143.606V262.136ZM143.48 268.034V272.655H142.204V268.034H143.48ZM148.454 267.314V268.372H137.287V267.314H148.454ZM147.405 261.14V262.175H138.322V261.14H147.405ZM156.266 264.718V265.796H153.965V264.718H156.266ZM152.597 263.814C152.594 264.693 152.481 265.543 152.259 266.361C152.04 267.177 151.716 267.908 151.287 268.556C150.858 269.204 150.346 269.71 149.75 270.074L148.938 269.107C149.498 268.772 149.977 268.324 150.373 267.763C150.773 267.202 151.074 266.582 151.277 265.902C151.48 265.222 151.582 264.526 151.582 263.814V261.527H152.597V263.814ZM152.839 263.756C152.839 264.436 152.931 265.098 153.114 265.742C153.301 266.384 153.579 266.974 153.946 267.512C154.317 268.05 154.768 268.48 155.3 268.802L154.57 269.808C153.977 269.45 153.475 268.956 153.066 268.324C152.657 267.692 152.351 266.985 152.148 266.202C151.948 265.419 151.849 264.603 151.853 263.756V261.527H152.839V263.756ZM159.641 260.41V272.66H158.393V260.41H159.641ZM157.098 260.647V272.056H155.875V260.647H157.098ZM164.886 266.695V270.287H163.609V266.695H164.886ZM169.449 266.695V270.287H168.139V266.695H169.449ZM172.137 270.059V271.133H160.926V270.059H172.137ZM166.5 261.121C167.374 261.124 168.154 261.259 168.84 261.527C169.527 261.791 170.063 262.167 170.45 262.653C170.837 263.137 171.03 263.694 171.03 264.326C171.03 264.958 170.837 265.515 170.45 265.999C170.063 266.479 169.527 266.851 168.84 267.115C168.154 267.376 167.374 267.507 166.5 267.507C165.627 267.507 164.849 267.376 164.165 267.115C163.482 266.851 162.947 266.479 162.56 265.999C162.177 265.515 161.985 264.958 161.985 264.326C161.985 263.691 162.177 263.132 162.56 262.648C162.947 262.165 163.482 261.791 164.165 261.527C164.852 261.259 165.63 261.124 166.5 261.121ZM166.5 262.17C165.865 262.167 165.301 262.252 164.808 262.426C164.318 262.6 163.935 262.852 163.658 263.18C163.384 263.509 163.247 263.891 163.247 264.326C163.247 264.755 163.384 265.133 163.658 265.462C163.935 265.788 164.318 266.041 164.808 266.221C165.301 266.401 165.865 266.492 166.5 266.492C167.135 266.492 167.699 266.401 168.192 266.221C168.685 266.041 169.071 265.788 169.348 265.462C169.625 265.133 169.763 264.755 169.763 264.326C169.763 263.891 169.625 263.509 169.348 263.18C169.071 262.852 168.685 262.6 168.192 262.426C167.699 262.252 167.135 262.167 166.5 262.17ZM174.138 271.592C173.961 271.592 173.797 271.548 173.645 271.461C173.497 271.371 173.379 271.253 173.292 271.108C173.205 270.96 173.163 270.799 173.167 270.625C173.163 270.451 173.205 270.29 173.292 270.142C173.379 269.993 173.497 269.876 173.645 269.789C173.797 269.702 173.961 269.658 174.138 269.658C174.309 269.658 174.467 269.702 174.612 269.789C174.76 269.876 174.88 269.993 174.97 270.142C175.06 270.29 175.105 270.451 175.105 270.625C175.105 270.799 175.06 270.96 174.97 271.108C174.883 271.253 174.765 271.371 174.617 271.461C174.469 271.548 174.309 271.592 174.138 271.592Z" fill="#C8C9CD"/>
<path d="M28.5028 317.301V318.204H25.8177V317.301H28.5028ZM29.1409 315.494V320.898H28.0304V315.494H29.1409ZM29.1409 321.395V324.001H23.3895V325.518H22.2956V323.164H28.0387V322.273H22.2749V321.395H29.1409ZM29.5014 324.971V325.862H22.2956V324.971H29.5014ZM23.8743 316.746C23.8743 317.398 23.7569 318.004 23.5221 318.565C23.2873 319.123 22.9503 319.606 22.511 320.015C22.0718 320.424 21.5497 320.732 20.9448 320.939L20.3522 320.052C20.8909 319.881 21.3577 319.631 21.7528 319.302C22.1478 318.971 22.4489 318.586 22.6561 318.146C22.866 317.707 22.9724 317.24 22.9751 316.746V315.834H23.8743V316.746ZM24.0856 316.746C24.0829 317.193 24.1837 317.622 24.3881 318.03C24.5925 318.439 24.8867 318.8 25.2707 319.112C25.6547 319.424 26.1064 319.663 26.6257 319.829L26.0331 320.695C25.4503 320.493 24.942 320.199 24.5083 319.812C24.0746 319.423 23.7417 318.965 23.5097 318.441C23.2804 317.916 23.1657 317.351 23.1657 316.746V315.834H24.0856V316.746ZM38.5551 317.148V318.043H35.5841V317.148H38.5551ZM38.58 319.228V320.14H35.5841V319.228H38.58ZM39.272 315.494V321.693H38.1615V315.494H39.272ZM35.87 316.286V320.997H30.993V316.286H35.87ZM32.0952 317.177V320.098H34.7803V317.177H32.0952ZM35.754 321.983C36.4833 321.983 37.1145 322.064 37.6477 322.224C38.1836 322.381 38.5938 322.61 38.8783 322.912C39.1629 323.21 39.3051 323.57 39.3051 323.993C39.3051 324.41 39.1629 324.768 38.8783 325.066C38.5938 325.365 38.185 325.591 37.6518 325.746C37.1187 325.901 36.4861 325.978 35.754 325.978C35.0192 325.978 34.3852 325.901 33.8521 325.746C33.3189 325.591 32.9101 325.365 32.6256 325.066C32.3438 324.768 32.2043 324.41 32.2071 323.993C32.2043 323.57 32.3452 323.21 32.6297 322.912C32.9142 322.61 33.3231 322.381 33.8562 322.224C34.3894 322.064 35.022 321.983 35.754 321.983ZM35.754 322.845C35.2374 322.848 34.7955 322.894 34.4281 322.982C34.0634 323.068 33.7844 323.198 33.591 323.372C33.4004 323.543 33.3065 323.75 33.3093 323.993C33.3065 324.225 33.4018 324.425 33.5952 324.594C33.7913 324.76 34.0717 324.888 34.4363 324.979C34.8037 325.068 35.243 325.112 35.754 325.112C36.2623 325.112 36.7002 325.068 37.0676 324.979C37.435 324.888 37.7153 324.76 37.9087 324.594C38.1021 324.425 38.2002 324.225 38.2029 323.993C38.2002 323.75 38.1021 323.543 37.9087 323.372C37.7153 323.198 37.435 323.068 37.0676 322.982C36.7029 322.894 36.2651 322.848 35.754 322.845Z" fill="#36383E" fill-opacity="0.7"/>
<rect x="20.5" y="334.5" width="334" height="43" rx="10.5" fill="white"/>
<rect x="20.5" y="334.5" width="334" height="43" rx="10.5" stroke="#D2D4DA"/>
<path d="M41.6222 351.788V359.431H36.8653V351.788H41.6222ZM38.0884 352.818V358.401H40.404V352.818H38.0884ZM46.9883 350.41V362.66H45.741V350.41H46.9883ZM43.8073 354.974V356.042H40.9841V354.974H43.8073ZM44.4986 350.647V362.056H43.261V350.647H44.4986ZM58.1504 354.456V355.515H49.6711V354.456H58.1504ZM50.9764 351.01V354.974H49.6711V351.01H50.9764ZM59.4412 357.164V358.218H48.274V357.164H59.4412ZM52.3735 357.555V362.66H51.0731V357.555H52.3735ZM56.647 357.555V362.66H55.3417V357.555H56.647ZM72.6971 352.518V353.572H69.5645V352.518H72.6971ZM73.4416 350.41V356.714H72.146V350.41H73.4416ZM73.4416 357.294V360.335H66.7316V362.104H65.4554V359.358H72.1556V358.319H65.4312V357.294H73.4416ZM73.8621 361.466V362.506H65.4554V361.466H73.8621ZM67.2972 351.87C67.2972 352.631 67.1602 353.338 66.8863 353.992C66.6124 354.643 66.2192 355.207 65.7067 355.684C65.1943 356.161 64.5852 356.521 63.8794 356.762L63.1881 355.728C63.8166 355.528 64.3612 355.236 64.8221 354.853C65.2829 354.466 65.6342 354.017 65.8759 353.504C66.1209 352.992 66.245 352.447 66.2482 351.87V350.807H67.2972V351.87ZM67.5438 351.87C67.5405 352.392 67.6582 352.892 67.8967 353.369C68.1352 353.846 68.4784 354.266 68.9264 354.631C69.3743 354.995 69.9013 355.273 70.5072 355.467L69.8159 356.477C69.1358 356.242 68.5428 355.899 68.0369 355.448C67.5309 354.993 67.1425 354.46 66.8718 353.847C66.6043 353.235 66.4706 352.576 66.4706 351.87V350.807H67.5438V351.87ZM84.4248 352.339V353.383H80.9587V352.339H84.4248ZM84.4538 354.766V355.829H80.9587V354.766H84.4538ZM85.2612 350.41V357.642H83.9656V350.41H85.2612ZM81.2922 351.334V356.83H75.6023V351.334H81.2922ZM76.8882 352.373V355.781H80.0208V352.373H76.8882ZM81.1569 357.981C82.0077 357.981 82.7441 358.074 83.3661 358.261C83.9914 358.445 84.47 358.712 84.8019 359.064C85.1339 359.412 85.2998 359.832 85.2998 360.325C85.2998 360.812 85.1339 361.229 84.8019 361.577C84.47 361.925 83.993 362.19 83.371 362.37C82.749 362.551 82.0109 362.641 81.1569 362.641C80.2996 362.641 79.56 362.551 78.938 362.37C78.316 362.19 77.839 361.925 77.507 361.577C77.1783 361.229 77.0155 360.812 77.0188 360.325C77.0155 359.832 77.1799 359.412 77.5119 359.064C77.8438 358.712 78.3208 358.445 78.9428 358.261C79.5648 358.074 80.3028 357.981 81.1569 357.981ZM81.1569 358.986C80.5542 358.989 80.0386 359.043 79.6099 359.146C79.1845 359.246 78.859 359.397 78.6334 359.6C78.411 359.8 78.3014 360.042 78.3047 360.325C78.3014 360.596 78.4126 360.83 78.6382 361.026C78.8671 361.22 79.1942 361.369 79.6196 361.476C80.0482 361.579 80.5607 361.631 81.1569 361.631C81.7499 361.631 82.2607 361.579 82.6893 361.476C83.118 361.369 83.4451 361.22 83.6707 361.026C83.8963 360.83 84.0107 360.596 84.0139 360.325C84.0107 360.042 83.8963 359.8 83.6707 359.6C83.4451 359.397 83.118 359.246 82.6893 359.146C82.2639 359.043 81.7531 358.989 81.1569 358.986ZM92.4447 350.613C93.3665 350.613 94.1528 350.694 94.8038 350.855C95.4581 351.016 95.956 351.255 96.2976 351.57C96.6425 351.883 96.8149 352.265 96.8149 352.716C96.8149 353.174 96.6425 353.562 96.2976 353.881C95.956 354.197 95.4581 354.437 94.8038 354.602C94.1528 354.763 93.3665 354.845 92.4447 354.848C91.523 354.845 90.7334 354.763 90.0759 354.602C89.4217 354.437 88.9222 354.197 88.5773 353.881C88.2357 353.562 88.0649 353.174 88.0649 352.716C88.0649 352.268 88.2373 351.886 88.5822 351.57C88.927 351.255 89.4265 351.016 90.0808 350.855C90.735 350.694 91.523 350.613 92.4447 350.613ZM92.4447 351.58C91.8002 351.577 91.2507 351.622 90.7962 351.715C90.3418 351.806 89.9986 351.936 89.7665 352.107C89.5345 352.275 89.4201 352.478 89.4233 352.716C89.4201 352.968 89.5345 353.18 89.7665 353.354C89.9986 353.525 90.3386 353.654 90.7866 353.741C91.2345 353.828 91.7873 353.872 92.4447 353.872C93.1086 353.872 93.6646 353.828 94.1125 353.741C94.5637 353.654 94.9054 353.525 95.1374 353.354C95.3694 353.18 95.4855 352.968 95.4855 352.716C95.4855 352.478 95.3678 352.275 95.1326 352.107C94.9005 351.936 94.5557 351.806 94.098 351.715C93.6436 351.625 93.0925 351.58 92.4447 351.58ZM98.038 355.593V356.632H86.8708V355.593H98.038ZM96.6215 357.575V360.441H89.4958V361.809H88.2244V359.508H95.3453V358.546H88.2002V357.575H96.6215ZM96.9744 361.539V362.544H88.2244V361.539H96.9744ZM111.99 350.41V356.985H110.69V350.41H111.99ZM105.241 357.579V358.952H110.699V357.579H111.99V362.506H103.97V357.579H105.241ZM105.241 361.447H110.699V359.977H105.241V361.447ZM105.338 350.976C105.957 350.973 106.513 351.09 107.006 351.329C107.502 351.567 107.891 351.904 108.171 352.339C108.451 352.774 108.592 353.269 108.592 353.823C108.592 354.371 108.451 354.861 108.171 355.293C107.891 355.725 107.502 356.06 107.006 356.298C106.513 356.537 105.957 356.654 105.338 356.651C104.719 356.654 104.162 356.537 103.665 356.298C103.169 356.06 102.779 355.725 102.496 355.293C102.215 354.861 102.075 354.371 102.075 353.823C102.075 353.269 102.215 352.774 102.496 352.339C102.779 351.904 103.169 351.567 103.665 351.329C104.162 351.09 104.719 350.973 105.338 350.976ZM105.338 352.068C104.951 352.065 104.606 352.138 104.304 352.286C104.001 352.431 103.764 352.637 103.593 352.905C103.425 353.172 103.343 353.478 103.346 353.823C103.343 354.168 103.425 354.474 103.593 354.742C103.764 355.006 104.001 355.212 104.304 355.36C104.606 355.506 104.951 355.58 105.338 355.583C105.718 355.58 106.058 355.506 106.358 355.36C106.661 355.212 106.896 355.006 107.064 354.742C107.235 354.474 107.32 354.168 107.32 353.823C107.32 353.478 107.235 353.172 107.064 352.905C106.896 352.637 106.661 352.431 106.358 352.286C106.058 352.138 105.718 352.065 105.338 352.068ZM115.04 356.419C116.323 356.419 117.314 356.4 118.013 356.361C118.716 356.323 119.414 356.239 120.107 356.11L120.232 357.169C119.523 357.288 118.806 357.367 118.081 357.405C117.359 357.441 116.346 357.46 115.04 357.463H114.156V356.419H115.04ZM119.478 351.15V354.718H115.442V357.062H114.156V353.731H118.187V352.184H114.131V351.15H119.478ZM123.858 350.42V357.952H122.562V350.42H123.858ZM122.833 352.204V353.243H120.256V352.204H122.833ZM122.833 354.756V355.805H120.256V354.756H122.833ZM123.858 358.575V362.675H122.562V359.624H115.538V358.575H123.858ZM131.515 352.441V353.49H125.439V352.441H131.515ZM128.489 354.224C128.998 354.224 129.454 354.345 129.857 354.587C130.263 354.829 130.579 355.164 130.805 355.593C131.033 356.018 131.149 356.501 131.153 357.043C131.149 357.594 131.033 358.087 130.805 358.522C130.579 358.954 130.263 359.291 129.857 359.532C129.454 359.771 128.998 359.89 128.489 359.89C127.98 359.89 127.524 359.769 127.121 359.528C126.718 359.283 126.402 358.946 126.173 358.517C125.945 358.085 125.832 357.594 125.835 357.043C125.832 356.501 125.945 356.018 126.173 355.593C126.402 355.164 126.718 354.829 127.121 354.587C127.524 354.345 127.98 354.224 128.489 354.224ZM128.489 355.307C128.196 355.311 127.935 355.386 127.706 355.535C127.477 355.68 127.298 355.884 127.169 356.148C127.04 356.41 126.976 356.708 126.976 357.043C126.976 357.388 127.04 357.692 127.169 357.956C127.298 358.218 127.477 358.421 127.706 358.566C127.935 358.707 128.196 358.777 128.489 358.773C128.779 358.777 129.039 358.707 129.267 358.566C129.496 358.421 129.675 358.216 129.804 357.952C129.936 357.687 130.002 357.384 130.002 357.043C130.002 356.708 129.936 356.41 129.804 356.148C129.675 355.884 129.496 355.68 129.267 355.535C129.039 355.386 128.779 355.311 128.489 355.307ZM135.958 350.41V362.66H134.72V350.41H135.958ZM135.126 355.515V356.574H132.874V355.515H135.126ZM133.309 350.686V362.085H132.086V350.686H133.309ZM129.132 350.773V353.093H127.846V350.773H129.132ZM143.267 352.136C143.264 352.848 143.045 353.503 142.61 354.099C142.178 354.692 141.593 355.186 140.855 355.583C140.117 355.976 139.298 356.244 138.399 356.385L137.911 355.36C138.675 355.257 139.379 355.046 140.023 354.727C140.671 354.405 141.184 354.018 141.561 353.567C141.941 353.113 142.133 352.636 142.136 352.136V351.672H143.267V352.136ZM143.606 352.136C143.602 352.636 143.789 353.113 144.166 353.567C144.547 354.018 145.061 354.405 145.709 354.727C146.356 355.046 147.065 355.257 147.836 355.36L147.357 356.385C146.451 356.244 145.628 355.976 144.887 355.583C144.145 355.186 143.557 354.692 143.122 354.099C142.69 353.506 142.474 352.852 142.474 352.136V351.672H143.606V352.136ZM143.48 358.034V362.655H142.204V358.034H143.48ZM148.454 357.314V358.372H137.287V357.314H148.454ZM147.405 351.14V352.175H138.322V351.14H147.405ZM156.266 354.718V355.796H153.965V354.718H156.266ZM152.597 353.814C152.594 354.693 152.481 355.543 152.259 356.361C152.04 357.177 151.716 357.908 151.287 358.556C150.858 359.204 150.346 359.71 149.75 360.074L148.938 359.107C149.498 358.772 149.977 358.324 150.373 357.763C150.773 357.202 151.074 356.582 151.277 355.902C151.48 355.222 151.582 354.526 151.582 353.814V351.527H152.597V353.814ZM152.839 353.756C152.839 354.436 152.931 355.098 153.114 355.742C153.301 356.384 153.579 356.974 153.946 357.512C154.317 358.05 154.768 358.48 155.3 358.802L154.57 359.808C153.977 359.45 153.475 358.956 153.066 358.324C152.657 357.692 152.351 356.985 152.148 356.202C151.948 355.419 151.849 354.603 151.853 353.756V351.527H152.839V353.756ZM159.641 350.41V362.66H158.393V350.41H159.641ZM157.098 350.647V362.056H155.875V350.647H157.098ZM164.886 356.695V360.287H163.609V356.695H164.886ZM169.449 356.695V360.287H168.139V356.695H169.449ZM172.137 360.059V361.133H160.926V360.059H172.137ZM166.5 351.121C167.374 351.124 168.154 351.259 168.84 351.527C169.527 351.791 170.063 352.167 170.45 352.653C170.837 353.137 171.03 353.694 171.03 354.326C171.03 354.958 170.837 355.515 170.45 355.999C170.063 356.479 169.527 356.851 168.84 357.115C168.154 357.376 167.374 357.507 166.5 357.507C165.627 357.507 164.849 357.376 164.165 357.115C163.482 356.851 162.947 356.479 162.56 355.999C162.177 355.515 161.985 354.958 161.985 354.326C161.985 353.691 162.177 353.132 162.56 352.648C162.947 352.165 163.482 351.791 164.165 351.527C164.852 351.259 165.63 351.124 166.5 351.121ZM166.5 352.17C165.865 352.167 165.301 352.252 164.808 352.426C164.318 352.6 163.935 352.852 163.658 353.18C163.384 353.509 163.247 353.891 163.247 354.326C163.247 354.755 163.384 355.133 163.658 355.462C163.935 355.788 164.318 356.041 164.808 356.221C165.301 356.401 165.865 356.492 166.5 356.492C167.135 356.492 167.699 356.401 168.192 356.221C168.685 356.041 169.071 355.788 169.348 355.462C169.625 355.133 169.763 354.755 169.763 354.326C169.763 353.891 169.625 353.509 169.348 353.18C169.071 352.852 168.685 352.6 168.192 352.426C167.699 352.252 167.135 352.167 166.5 352.17ZM174.138 361.592C173.961 361.592 173.797 361.548 173.645 361.461C173.497 361.371 173.379 361.253 173.292 361.108C173.205 360.96 173.163 360.799 173.167 360.625C173.163 360.451 173.205 360.29 173.292 360.142C173.379 359.993 173.497 359.876 173.645 359.789C173.797 359.702 173.961 359.658 174.138 359.658C174.309 359.658 174.467 359.702 174.612 359.789C174.76 359.876 174.88 359.993 174.97 360.142C175.06 360.29 175.105 360.451 175.105 360.625C175.105 360.799 175.06 360.96 174.97 361.108C174.883 361.253 174.765 361.371 174.617 361.461C174.469 361.548 174.309 361.592 174.138 361.592Z" fill="#C8C9CD"/>
<path d="M28.5691 405.494V415.982H27.4544V405.494H28.5691ZM30.1975 409.68V410.612H28.279V409.68H30.1975ZM25.8218 406.605C25.8191 407.652 25.6533 408.634 25.3246 409.551C24.9986 410.465 24.4793 411.305 23.7666 412.07C23.0539 412.836 22.1367 413.494 21.0152 414.047L20.3936 413.185C21.355 412.704 22.1561 412.146 22.797 411.511C23.4406 410.876 23.9227 410.164 24.2431 409.377C24.5635 408.59 24.7238 407.728 24.7238 406.791V406.605H25.8218ZM25.2914 406.605V407.525H20.9199V406.605H25.2914ZM36.0814 406.186C36.0814 407.084 35.8825 407.894 35.4847 408.615C35.0897 409.336 34.5192 409.952 33.7734 410.463C33.0303 410.974 32.1366 411.37 31.0924 411.652L30.6698 410.765C31.5593 410.525 32.3217 410.206 32.9571 409.808C33.5952 409.407 34.08 408.945 34.4115 408.42C34.7457 407.892 34.9129 407.322 34.9129 406.709V406.186H36.0814ZM35.5924 406.186V407.094H31.225V406.186H35.5924ZM39.272 412.207V415.974H38.1615V413.09H32.1532V412.207H39.272ZM39.272 405.503V411.751H38.1615V405.503H39.272ZM38.3687 407.322V408.217H35.6256V407.322H38.3687ZM38.2899 409.535V410.442H35.5095V409.535H38.2899Z" fill="#36383E" fill-opacity="0.7"/>
<rect x="20.5" y="424.5" width="334" height="43" rx="10.5" fill="white"/>
<rect x="20.5" y="424.5" width="334" height="43" rx="10.5" stroke="#D2D4DA"/>
<path d="M41.6222 441.788V449.431H36.8653V441.788H41.6222ZM38.0884 442.818V448.401H40.404V442.818H38.0884ZM46.9883 440.41V452.66H45.741V440.41H46.9883ZM43.8073 444.974V446.042H40.9841V444.974H43.8073ZM44.4986 440.647V452.056H43.261V440.647H44.4986ZM58.1504 444.456V445.515H49.6711V444.456H58.1504ZM50.9764 441.01V444.974H49.6711V441.01H50.9764ZM59.4412 447.164V448.218H48.274V447.164H59.4412ZM52.3735 447.555V452.66H51.0731V447.555H52.3735ZM56.647 447.555V452.66H55.3417V447.555H56.647ZM72.7744 440.41V452.646H71.474V440.41H72.7744ZM74.6743 445.293V446.381H72.436V445.293H74.6743ZM69.5693 441.706C69.5661 442.927 69.3727 444.073 68.9892 445.143C68.6089 446.21 68.003 447.189 67.1715 448.082C66.34 448.975 65.2701 449.744 63.9616 450.388L63.2364 449.383C64.358 448.822 65.2926 448.171 66.0403 447.43C66.7912 446.688 67.3536 445.858 67.7275 444.94C68.1013 444.021 68.2882 443.016 68.2882 441.923V441.706H69.5693ZM68.9505 441.706V442.779H63.8504V441.706H68.9505ZM81.5388 441.218C81.5388 442.265 81.3067 443.209 80.8427 444.05C80.3818 444.892 79.7163 445.61 78.8461 446.206C77.9792 446.803 76.9366 447.265 75.7183 447.594L75.2253 446.559C76.263 446.279 77.1525 445.907 77.8938 445.443C78.6382 444.975 79.2038 444.436 79.5906 443.823C79.9805 443.208 80.1755 442.542 80.1755 441.827V441.218H81.5388ZM80.9683 441.218V442.276H75.873V441.218H80.9683ZM85.2612 448.242V452.636H83.9656V449.271H76.9559V448.242H85.2612ZM85.2612 440.42V447.71H83.9656V440.42H85.2612ZM84.2073 442.542V443.586H81.007V442.542H84.2073ZM84.1154 445.124V446.182H80.8717V445.124H84.1154ZM92.4447 440.613C93.3665 440.613 94.1528 440.694 94.8038 440.855C95.4581 441.016 95.956 441.255 96.2976 441.57C96.6425 441.883 96.8149 442.265 96.8149 442.716C96.8149 443.174 96.6425 443.562 96.2976 443.881C95.956 444.197 95.4581 444.437 94.8038 444.602C94.1528 444.763 93.3665 444.845 92.4447 444.848C91.523 444.845 90.7334 444.763 90.0759 444.602C89.4217 444.437 88.9222 444.197 88.5773 443.881C88.2357 443.562 88.0649 443.174 88.0649 442.716C88.0649 442.268 88.2373 441.886 88.5822 441.57C88.927 441.255 89.4265 441.016 90.0808 440.855C90.735 440.694 91.523 440.613 92.4447 440.613ZM92.4447 441.58C91.8002 441.577 91.2507 441.622 90.7962 441.715C90.3418 441.806 89.9986 441.936 89.7665 442.107C89.5345 442.275 89.4201 442.478 89.4233 442.716C89.4201 442.968 89.5345 443.18 89.7665 443.354C89.9986 443.525 90.3386 443.654 90.7866 443.741C91.2345 443.828 91.7873 443.872 92.4447 443.872C93.1086 443.872 93.6646 443.828 94.1125 443.741C94.5637 443.654 94.9054 443.525 95.1374 443.354C95.3694 443.18 95.4855 442.968 95.4855 442.716C95.4855 442.478 95.3678 442.275 95.1326 442.107C94.9005 441.936 94.5557 441.806 94.098 441.715C93.6436 441.625 93.0925 441.58 92.4447 441.58ZM98.038 445.593V446.632H86.8708V445.593H98.038ZM96.6215 447.575V450.441H89.4958V451.809H88.2244V449.508H95.3453V448.546H88.2002V447.575H96.6215ZM96.9744 451.539V452.544H88.2244V451.539H96.9744ZM111.99 440.41V446.985H110.69V440.41H111.99ZM105.241 447.579V448.952H110.699V447.579H111.99V452.506H103.97V447.579H105.241ZM105.241 451.447H110.699V449.977H105.241V451.447ZM105.338 440.976C105.957 440.973 106.513 441.09 107.006 441.329C107.502 441.567 107.891 441.904 108.171 442.339C108.451 442.774 108.592 443.269 108.592 443.823C108.592 444.371 108.451 444.861 108.171 445.293C107.891 445.725 107.502 446.06 107.006 446.298C106.513 446.537 105.957 446.654 105.338 446.651C104.719 446.654 104.162 446.537 103.665 446.298C103.169 446.06 102.779 445.725 102.496 445.293C102.215 444.861 102.075 444.371 102.075 443.823C102.075 443.269 102.215 442.774 102.496 442.339C102.779 441.904 103.169 441.567 103.665 441.329C104.162 441.09 104.719 440.973 105.338 440.976ZM105.338 442.068C104.951 442.065 104.606 442.138 104.304 442.286C104.001 442.431 103.764 442.637 103.593 442.905C103.425 443.172 103.343 443.478 103.346 443.823C103.343 444.168 103.425 444.474 103.593 444.742C103.764 445.006 104.001 445.212 104.304 445.36C104.606 445.506 104.951 445.58 105.338 445.583C105.718 445.58 106.058 445.506 106.358 445.36C106.661 445.212 106.896 445.006 107.064 444.742C107.235 444.474 107.32 444.168 107.32 443.823C107.32 443.478 107.235 443.172 107.064 442.905C106.896 442.637 106.661 442.431 106.358 442.286C106.058 442.138 105.718 442.065 105.338 442.068ZM115.04 446.419C116.323 446.419 117.314 446.4 118.013 446.361C118.716 446.323 119.414 446.239 120.107 446.11L120.232 447.169C119.523 447.288 118.806 447.367 118.081 447.405C117.359 447.441 116.346 447.46 115.04 447.463H114.156V446.419H115.04ZM119.478 441.15V444.718H115.442V447.062H114.156V443.731H118.187V442.184H114.131V441.15H119.478ZM123.858 440.42V447.952H122.562V440.42H123.858ZM122.833 442.204V443.243H120.256V442.204H122.833ZM122.833 444.756V445.805H120.256V444.756H122.833ZM123.858 448.575V452.675H122.562V449.624H115.538V448.575H123.858ZM131.515 442.441V443.49H125.439V442.441H131.515ZM128.489 444.224C128.998 444.224 129.454 444.345 129.857 444.587C130.263 444.829 130.579 445.164 130.805 445.593C131.033 446.018 131.149 446.501 131.153 447.043C131.149 447.594 131.033 448.087 130.805 448.522C130.579 448.954 130.263 449.291 129.857 449.532C129.454 449.771 128.998 449.89 128.489 449.89C127.98 449.89 127.524 449.769 127.121 449.528C126.718 449.283 126.402 448.946 126.173 448.517C125.945 448.085 125.832 447.594 125.835 447.043C125.832 446.501 125.945 446.018 126.173 445.593C126.402 445.164 126.718 444.829 127.121 444.587C127.524 444.345 127.98 444.224 128.489 444.224ZM128.489 445.307C128.196 445.311 127.935 445.386 127.706 445.535C127.477 445.68 127.298 445.884 127.169 446.148C127.04 446.41 126.976 446.708 126.976 447.043C126.976 447.388 127.04 447.692 127.169 447.956C127.298 448.218 127.477 448.421 127.706 448.566C127.935 448.707 128.196 448.777 128.489 448.773C128.779 448.777 129.039 448.707 129.267 448.566C129.496 448.421 129.675 448.216 129.804 447.952C129.936 447.687 130.002 447.384 130.002 447.043C130.002 446.708 129.936 446.41 129.804 446.148C129.675 445.884 129.496 445.68 129.267 445.535C129.039 445.386 128.779 445.311 128.489 445.307ZM135.958 440.41V452.66H134.72V440.41H135.958ZM135.126 445.515V446.574H132.874V445.515H135.126ZM133.309 440.686V452.085H132.086V440.686H133.309ZM129.132 440.773V443.093H127.846V440.773H129.132ZM143.267 442.136C143.264 442.848 143.045 443.503 142.61 444.099C142.178 444.692 141.593 445.186 140.855 445.583C140.117 445.976 139.298 446.244 138.399 446.385L137.911 445.36C138.675 445.257 139.379 445.046 140.023 444.727C140.671 444.405 141.184 444.018 141.561 443.567C141.941 443.113 142.133 442.636 142.136 442.136V441.672H143.267V442.136ZM143.606 442.136C143.602 442.636 143.789 443.113 144.166 443.567C144.547 444.018 145.061 444.405 145.709 444.727C146.356 445.046 147.065 445.257 147.836 445.36L147.357 446.385C146.451 446.244 145.628 445.976 144.887 445.583C144.145 445.186 143.557 444.692 143.122 444.099C142.69 443.506 142.474 442.852 142.474 442.136V441.672H143.606V442.136ZM143.48 448.034V452.655H142.204V448.034H143.48ZM148.454 447.314V448.372H137.287V447.314H148.454ZM147.405 441.14V442.175H138.322V441.14H147.405ZM156.266 444.718V445.796H153.965V444.718H156.266ZM152.597 443.814C152.594 444.693 152.481 445.543 152.259 446.361C152.04 447.177 151.716 447.908 151.287 448.556C150.858 449.204 150.346 449.71 149.75 450.074L148.938 449.107C149.498 448.772 149.977 448.324 150.373 447.763C150.773 447.202 151.074 446.582 151.277 445.902C151.48 445.222 151.582 444.526 151.582 443.814V441.527H152.597V443.814ZM152.839 443.756C152.839 444.436 152.931 445.098 153.114 445.742C153.301 446.384 153.579 446.974 153.946 447.512C154.317 448.05 154.768 448.48 155.3 448.802L154.57 449.808C153.977 449.45 153.475 448.956 153.066 448.324C152.657 447.692 152.351 446.985 152.148 446.202C151.948 445.419 151.849 444.603 151.853 443.756V441.527H152.839V443.756ZM159.641 440.41V452.66H158.393V440.41H159.641ZM157.098 440.647V452.056H155.875V440.647H157.098ZM164.886 446.695V450.287H163.609V446.695H164.886ZM169.449 446.695V450.287H168.139V446.695H169.449ZM172.137 450.059V451.133H160.926V450.059H172.137ZM166.5 441.121C167.374 441.124 168.154 441.259 168.84 441.527C169.527 441.791 170.063 442.167 170.45 442.653C170.837 443.137 171.03 443.694 171.03 444.326C171.03 444.958 170.837 445.515 170.45 445.999C170.063 446.479 169.527 446.851 168.84 447.115C168.154 447.376 167.374 447.507 166.5 447.507C165.627 447.507 164.849 447.376 164.165 447.115C163.482 446.851 162.947 446.479 162.56 445.999C162.177 445.515 161.985 444.958 161.985 444.326C161.985 443.691 162.177 443.132 162.56 442.648C162.947 442.165 163.482 441.791 164.165 441.527C164.852 441.259 165.63 441.124 166.5 441.121ZM166.5 442.17C165.865 442.167 165.301 442.252 164.808 442.426C164.318 442.6 163.935 442.852 163.658 443.18C163.384 443.509 163.247 443.891 163.247 444.326C163.247 444.755 163.384 445.133 163.658 445.462C163.935 445.788 164.318 446.041 164.808 446.221C165.301 446.401 165.865 446.492 166.5 446.492C167.135 446.492 167.699 446.401 168.192 446.221C168.685 446.041 169.071 445.788 169.348 445.462C169.625 445.133 169.763 444.755 169.763 444.326C169.763 443.891 169.625 443.509 169.348 443.18C169.071 442.852 168.685 442.6 168.192 442.426C167.699 442.252 167.135 442.167 166.5 442.17ZM174.138 451.592C173.961 451.592 173.797 451.548 173.645 451.461C173.497 451.371 173.379 451.253 173.292 451.108C173.205 450.96 173.163 450.799 173.167 450.625C173.163 450.451 173.205 450.29 173.292 450.142C173.379 449.993 173.497 449.876 173.645 449.789C173.797 449.702 173.961 449.658 174.138 449.658C174.309 449.658 174.467 449.702 174.612 449.789C174.76 449.876 174.88 449.993 174.97 450.142C175.06 450.29 175.105 450.451 175.105 450.625C175.105 450.799 175.06 450.96 174.97 451.108C174.883 451.253 174.765 451.371 174.617 451.461C174.469 451.548 174.309 451.592 174.138 451.592Z" fill="#C8C9CD"/>
<rect width="375" height="112" transform="translate(0 700)" fill="url(#paint0_linear_777_8160)"/>
<rect x="20" y="712" width="84" height="52" rx="12" fill="#36383E" fill-opacity="0.05"/>
<path d="M53.6464 734.028C53.6427 734.709 53.4843 735.337 53.1713 735.912C52.8619 736.486 52.4125 736.978 51.8232 737.387C51.2376 737.796 50.5414 738.094 49.7348 738.282L49.1105 737.116C49.7882 736.972 50.3775 736.748 50.8785 736.442C51.3794 736.136 51.7624 735.775 52.0276 735.359C52.2965 734.939 52.4309 734.495 52.4309 734.028V733.823H53.6464V734.028ZM53.9171 734.028C53.9171 734.47 54.0497 734.886 54.3149 735.276C54.5801 735.667 54.9613 736.006 55.4586 736.293C55.9558 736.576 56.5396 736.788 57.2099 736.928L56.6133 738.088C55.8066 737.908 55.1105 737.624 54.5249 737.238C53.9429 736.847 53.4954 736.378 53.1823 735.829C52.8692 735.276 52.7127 734.676 52.7127 734.028V733.823H53.9171V734.028ZM56.9227 732.862V734.022H49.4254V732.862H56.9227ZM53.9171 731.359V733.669H52.4365V731.359H53.9171ZM53.9392 739.315V744.906H52.453V739.315H53.9392ZM60.1492 731.337V745.331H58.6906V731.337H60.1492ZM48.5028 739.138C50.3039 739.142 51.9521 739.118 53.4475 739.066C54.9466 739.015 56.3702 738.902 57.7182 738.729L57.8232 739.807C56.4236 740.039 54.9779 740.192 53.4862 740.265C51.9982 740.339 50.4015 740.376 48.6961 740.376L48.5028 739.138ZM74.8396 742.337V743.547H62.0275V742.337H74.8396ZM69.0938 739V742.713H67.6352V739H69.0938ZM68.8728 733.276C68.8728 734.245 68.6094 735.147 68.0827 735.983C67.5597 736.82 66.858 737.523 65.9777 738.094C65.0974 738.661 64.1416 739.048 63.1103 739.254L62.4584 738.022C63.3534 737.875 64.1932 737.565 64.9777 737.094C65.766 736.619 66.3939 736.046 66.8617 735.376C67.3332 734.705 67.5707 734.006 67.5744 733.276V732.227H68.8728V733.276ZM69.138 733.276C69.138 734.002 69.3755 734.702 69.8507 735.376C70.3258 736.046 70.9575 736.619 71.7457 737.094C72.5339 737.565 73.3792 737.875 74.2816 738.022L73.6297 739.254C72.5947 739.048 71.6334 738.663 70.7457 738.099C69.8617 737.532 69.1564 736.831 68.6297 735.994C68.1067 735.158 67.847 734.252 67.8507 733.276V732.227H69.138V733.276Z" fill="#36383E" fill-opacity="0.9"/>
<rect x="112" y="712" width="243" height="52" rx="12" fill="#FFCC3E" fill-opacity="0.5"/>
<path d="M213.619 740.221V745.348H212.16V740.221H213.619ZM219.282 739.762V740.989H206.519V739.762H219.282ZM213.459 734.116C213.459 734.901 213.208 735.621 212.707 736.276C212.21 736.932 211.532 737.479 210.674 737.917C209.816 738.355 208.86 738.648 207.807 738.796L207.265 737.613C208.16 737.499 208.98 737.269 209.724 736.923C210.471 736.573 211.063 736.151 211.497 735.657C211.936 735.16 212.157 734.646 212.16 734.116V733.757H213.459V734.116ZM213.635 734.116C213.635 734.643 213.851 735.153 214.282 735.646C214.713 736.14 215.3 736.564 216.044 736.917C216.792 737.267 217.613 737.499 218.508 737.613L217.967 738.796C216.913 738.648 215.959 738.354 215.105 737.912C214.25 737.466 213.575 736.915 213.077 736.26C212.58 735.6 212.331 734.886 212.331 734.116V733.757H213.635V734.116ZM218.066 733.022V734.215H207.724V733.022H218.066ZM213.619 731.326V733.436H212.16V731.326H213.619ZM230.934 731.326V745.309H229.447V731.326H230.934ZM233.105 736.906V738.149H230.547V736.906H233.105ZM227.271 732.807C227.267 734.203 227.046 735.512 226.608 736.735C226.173 737.954 225.481 739.074 224.53 740.094C223.58 741.114 222.357 741.993 220.862 742.729L220.033 741.58C221.315 740.939 222.383 740.195 223.237 739.348C224.096 738.501 224.738 737.552 225.166 736.503C225.593 735.453 225.806 734.304 225.806 733.055V732.807H227.271ZM226.563 732.807V734.033H220.735V732.807H226.563ZM244.442 731.326V745.326H242.972V731.326H244.442ZM246.685 737V738.232H244.11V737H246.685ZM241.751 733.519V734.729H233.458V733.519H241.751ZM237.663 735.762C238.322 735.762 238.915 735.902 239.442 736.182C239.968 736.459 240.383 736.843 240.685 737.337C240.987 737.831 241.138 738.392 241.138 739.022C241.138 739.652 240.987 740.214 240.685 740.707C240.383 741.201 239.968 741.586 239.442 741.862C238.915 742.138 238.322 742.276 237.663 742.276C236.996 742.276 236.397 742.138 235.867 741.862C235.337 741.586 234.922 741.201 234.624 740.707C234.326 740.21 234.176 739.648 234.176 739.022C234.176 738.396 234.326 737.836 234.624 737.343C234.922 736.845 235.337 736.459 235.867 736.182C236.397 735.902 236.996 735.762 237.663 735.762ZM237.663 736.989C237.265 736.989 236.909 737.076 236.596 737.249C236.283 737.418 236.037 737.657 235.856 737.967C235.679 738.276 235.593 738.628 235.596 739.022C235.593 739.416 235.679 739.768 235.856 740.077C236.037 740.383 236.283 740.621 236.596 740.79C236.909 740.956 237.265 741.039 237.663 741.039C238.057 741.039 238.409 740.956 238.718 740.79C239.027 740.621 239.27 740.383 239.447 740.077C239.628 739.768 239.72 739.416 239.723 739.022C239.72 738.628 239.628 738.276 239.447 737.967C239.27 737.657 239.025 737.418 238.712 737.249C238.403 737.076 238.053 736.989 237.663 736.989ZM238.392 731.508V734.033H236.911V731.508H238.392ZM258.679 731.326V745.326H257.187V731.326H258.679ZM254.519 732.834C254.515 734.256 254.294 735.575 253.856 736.79C253.418 738.002 252.714 739.116 251.745 740.133C250.78 741.149 249.519 742.029 247.961 742.773L247.176 741.575C248.521 740.937 249.626 740.197 250.491 739.354C251.36 738.51 252.003 737.567 252.419 736.525C252.836 735.483 253.046 734.331 253.049 733.072V732.834H254.519ZM253.696 732.834V734.017H247.856V732.834H253.696Z" fill="#36383E" fill-opacity="0.5"/>
</g>
<defs>
<linearGradient id="paint0_linear_777_8160" x1="187.5" y1="0" x2="187.5" y2="50.7907" gradientUnits="userSpaceOnUse">
<stop stop-color="white" stop-opacity="0"/>
<stop offset="1" stop-color="white"/>
</linearGradient>
<clipPath id="clip0_777_8160">
<rect width="375" height="812" fill="white"/>
</clipPath>
</defs>
</svg>
