<svg width="375" height="812" viewBox="0 0 375 812" fill="none" xmlns="http://www.w3.org/2000/svg">
<g clip-path="url(#clip0_777_8235)">
<rect width="375" height="812" fill="white"/>
<rect width="375" height="44" fill="white"/>
<rect opacity="0.35" x="336.833" y="17.8334" width="21" height="10.3333" rx="2.16667" stroke="black"/>
<path opacity="0.4" d="M359.333 21V25C360.138 24.6612 360.661 23.8731 360.661 23C360.661 22.1269 360.138 21.3388 359.333 21Z" fill="black"/>
<rect x="338.333" y="19.3334" width="18" height="7.33333" rx="1.33333" fill="black"/>
<path fill-rule="evenodd" clip-rule="evenodd" d="M321.448 25.7574C322.729 24.6751 324.605 24.6751 325.886 25.7574C325.95 25.8156 325.987 25.8982 325.989 25.9849C325.991 26.0716 325.956 26.1547 325.895 26.2154L323.89 28.2378C323.831 28.2972 323.751 28.3306 323.667 28.3306C323.583 28.3306 323.503 28.2973 323.444 28.2378L321.438 26.2154C321.377 26.1547 321.343 26.0713 321.345 25.9849C321.347 25.8982 321.384 25.8155 321.448 25.7574ZM318.772 23.0601C321.532 20.4957 325.804 20.4958 328.563 23.0601C328.626 23.1202 328.661 23.2031 328.662 23.2896C328.663 23.376 328.629 23.4588 328.568 23.5201L327.409 24.691C327.29 24.8103 327.097 24.8121 326.975 24.6959C326.069 23.8761 324.889 23.4223 323.667 23.4224C322.446 23.4229 321.268 23.8768 320.362 24.6959C320.24 24.8122 320.046 24.8105 319.927 24.691L318.769 23.5201C318.707 23.4589 318.673 23.376 318.674 23.2896C318.675 23.2031 318.71 23.1202 318.772 23.0601ZM316.097 20.3697C320.328 16.3176 327.004 16.3178 331.236 20.3697C331.298 20.4299 331.333 20.5123 331.333 20.5982C331.333 20.684 331.3 20.7668 331.239 20.8277L330.079 21.9976C329.96 22.1177 329.765 22.1188 329.644 22.0005C328.031 20.4691 325.892 19.6149 323.667 19.6148C321.442 19.6148 319.302 20.4689 317.689 22.0005C317.568 22.1189 317.374 22.1177 317.255 21.9976L316.094 20.8277C316.033 20.7668 316 20.6839 316 20.5982C316.001 20.5123 316.035 20.4298 316.097 20.3697Z" fill="black"/>
<path d="M296 24.3336C296.552 24.3336 297 24.7813 297 25.3336V27.3336C297 27.8858 296.552 28.3336 296 28.3336H295C294.448 28.3336 294 27.8858 294 27.3336V25.3336C294 24.7813 294.448 24.3336 295 24.3336H296ZM300.667 22.3336C301.219 22.3338 301.667 22.7814 301.667 23.3336V27.3336C301.667 27.8856 301.219 28.3334 300.667 28.3336H299.667C299.115 28.3336 298.667 27.8858 298.667 27.3336V23.3336C298.667 22.7813 299.115 22.3336 299.667 22.3336H300.667ZM305.333 19.9996C305.885 19.9996 306.333 20.4475 306.333 20.9996V27.3336C306.333 27.8858 305.885 28.3336 305.333 28.3336H304.333C303.781 28.3334 303.333 27.8856 303.333 27.3336V20.9996C303.333 20.4476 303.781 19.9998 304.333 19.9996H305.333ZM310 17.6666C310.552 17.6666 311 18.1143 311 18.6666V27.3336C311 27.8858 310.552 28.3336 310 28.3336H309C308.448 28.3336 308 27.8858 308 27.3336V18.6666C308 18.1143 308.448 17.6666 309 17.6666H310Z" fill="black"/>
<path d="M37.1246 17.1675C39.3805 17.1675 41.3434 18.7715 41.3434 22.5801V22.5947C41.3434 26.1543 39.7394 28.2637 37.0807 28.2637C35.1398 28.2637 33.6896 27.1138 33.3527 25.4951L33.338 25.4146H35.1984L35.2204 25.4878C35.4987 26.2275 36.1505 26.7109 37.0807 26.7109C38.7579 26.7109 39.4684 25.0703 39.549 23.0488C39.549 22.9683 39.5563 22.8877 39.5563 22.8071H39.4098C39.0216 23.6421 38.0988 24.3818 36.6486 24.3818C34.6198 24.3818 33.1989 22.9023 33.1989 20.8955V20.8809C33.1989 18.7349 34.8322 17.1675 37.1246 17.1675ZM37.1173 22.9316C38.3112 22.9316 39.2267 22.0674 39.2267 20.8735V20.8589C39.2267 19.6504 38.3112 18.7056 37.1393 18.7056C35.9747 18.7056 35.0446 19.6357 35.0446 20.8149V20.8296C35.0446 22.0527 35.9162 22.9316 37.1173 22.9316ZM44.4286 21.1519C43.7621 21.1519 43.264 20.6392 43.264 19.9946C43.264 19.3428 43.7621 18.8374 44.4286 18.8374C45.1024 18.8374 45.5931 19.3428 45.5931 19.9946C45.5931 20.6392 45.1024 21.1519 44.4286 21.1519ZM44.4286 26.5864C43.7621 26.5864 43.264 26.0811 43.264 25.4292C43.264 24.7773 43.7621 24.272 44.4286 24.272C45.1024 24.272 45.5931 24.7773 45.5931 25.4292C45.5931 26.0811 45.1024 26.5864 44.4286 26.5864ZM52.6407 28V25.9712H47.4698V24.4258C48.8395 22.0454 50.3409 19.6138 51.7765 17.4312H54.4498V24.4111H55.8707V25.9712H54.4498V28H52.6407ZM49.2277 24.4551H52.67V18.9399H52.5602C51.4762 20.5952 50.253 22.5508 49.2277 24.3452V24.4551ZM60.0106 28V19.2915H59.8861L57.2567 21.1519V19.3721L60.0179 17.4312H61.9003V28H60.0106Z" fill="black"/>
<rect width="375" height="44" transform="translate(0 44)" fill="white"/>
<path d="M35 59L28 66L35 73" stroke="#292A2E" stroke-width="2" stroke-linecap="round" stroke-linejoin="round"/>
<path d="M156.539 67.558V68.7403H143.727V67.558H156.539ZM150.826 68.105V73.326H149.367V68.105H150.826ZM146.793 59.895V61.7182H153.456V59.895H154.937V65.9724H145.323V59.895H146.793ZM146.793 64.779H153.456V62.9061H146.793V64.779ZM164.102 61.3149C164.102 62.2983 163.841 63.2173 163.318 64.0718C162.798 64.9227 162.1 65.6446 161.224 66.2376C160.351 66.8306 159.402 67.2413 158.378 67.4696L157.715 66.232C158.599 66.0663 159.43 65.7385 160.207 65.2486C160.988 64.7551 161.614 64.1621 162.086 63.4696C162.561 62.7772 162.8 62.0589 162.804 61.3149V60.2597H164.102V61.3149ZM164.367 61.3149C164.367 62.0589 164.603 62.779 165.075 63.4751C165.55 64.1676 166.179 64.7606 166.964 65.2541C167.752 65.744 168.59 66.07 169.478 66.232L168.804 67.4696C167.78 67.2486 166.831 66.8435 165.958 66.2541C165.086 65.6611 164.389 64.9374 163.87 64.0829C163.351 63.2247 163.093 62.302 163.097 61.3149V60.2597H164.367V61.3149ZM170.069 70.2541V71.4862H157.257V70.2541H170.069ZM185.987 59.326V73.326H184.495V59.326H185.987ZM181.826 60.8343C181.823 62.256 181.602 63.5746 181.163 64.7901C180.725 66.0018 180.022 67.116 179.053 68.1326C178.088 69.1492 176.826 70.0295 175.268 70.7735L174.484 69.5746C175.828 68.9374 176.933 68.1971 177.799 67.3536C178.668 66.5101 179.311 65.5672 179.727 64.5249C180.143 63.4825 180.353 62.3315 180.357 61.0718V60.8343H181.826ZM181.003 60.8343V62.0166H175.163V60.8343H181.003ZM191.003 59.8674V61.5193H197.489V59.8674H198.964V65.5083H189.528V59.8674H191.003ZM191.003 64.3204H197.489V62.674H191.003V64.3204ZM200.622 66.895V68.1105H187.859V66.895H200.622ZM194.97 64.8122V67.4365H193.495V64.8122H194.97ZM199.185 71.8232V73.0387H189.467V71.8232H199.185ZM190.959 69.116V72.2541H189.467V69.116H190.959ZM215.567 62.895V64.116H212.528V62.895H215.567ZM216.622 59.326V67.6575H215.142V59.326H216.622ZM211.932 68.0497C212.904 68.0497 213.746 68.1547 214.456 68.3646C215.171 68.5709 215.718 68.8729 216.097 69.2707C216.477 69.6648 216.666 70.1381 216.666 70.6906C216.666 71.2394 216.477 71.7109 216.097 72.105C215.718 72.4991 215.173 72.7993 214.462 73.0055C213.751 73.2155 212.908 73.3223 211.932 73.326C210.952 73.3223 210.107 73.2155 209.396 73.0055C208.685 72.7993 208.14 72.4991 207.76 72.105C207.385 71.7109 207.199 71.2394 207.202 70.6906C207.199 70.1381 207.386 69.6648 207.766 69.2707C208.145 68.8729 208.69 68.5709 209.401 68.3646C210.112 68.1547 210.956 68.0497 211.932 68.0497ZM211.932 69.1989C211.247 69.1989 210.659 69.2578 210.169 69.3757C209.679 69.4899 209.305 69.6593 209.048 69.884C208.793 70.105 208.668 70.3738 208.672 70.6906C208.668 71 208.793 71.267 209.048 71.4917C209.305 71.7127 209.679 71.8803 210.169 71.9945C210.659 72.1087 211.247 72.1639 211.932 72.1602C212.609 72.1639 213.193 72.1087 213.683 71.9945C214.173 71.8803 214.547 71.7127 214.805 71.4917C215.062 71.267 215.193 71 215.197 70.6906C215.193 70.3738 215.062 70.105 214.805 69.884C214.547 69.6593 214.173 69.4899 213.683 69.3757C213.193 69.2578 212.609 69.1989 211.932 69.1989ZM209.677 61.8122C209.674 62.6777 209.512 63.4936 209.191 64.2597C208.875 65.0221 208.42 65.6924 207.827 66.2707C207.234 66.8453 206.534 67.2799 205.727 67.5746L204.959 66.3978C205.666 66.151 206.283 65.7919 206.81 65.3204C207.34 64.8453 207.747 64.3039 208.031 63.6961C208.315 63.0884 208.456 62.4604 208.456 61.8122V60.7348H209.677V61.8122ZM209.959 61.8011C209.959 62.3941 210.094 62.9687 210.363 63.5249C210.635 64.081 211.026 64.5764 211.534 65.011C212.046 65.4457 212.646 65.779 213.335 66.011L212.578 67.1934C211.793 66.9208 211.112 66.5138 210.534 65.9724C209.959 65.4273 209.517 64.7956 209.208 64.0773C208.902 63.3591 208.749 62.6004 208.749 61.8011V60.7348H209.959V61.8011ZM212.976 60.2928V61.5028H205.418V60.2928H212.976ZM231.274 70.3646V71.5912H218.462V70.3646H231.274ZM225.567 67.105V70.7127H224.097V67.105H225.567ZM221.407 60.2818V62.6961H228.28V60.2818H229.755V67.4917H219.92V60.2818H221.407ZM221.407 66.2873H228.28V63.8895H221.407V66.2873Z" fill="#36383E"/>
<rect width="375" height="724" transform="translate(0 88)" fill="#36383E" fill-opacity="0.05"/>
<rect x="20" y="112" width="335" height="155" rx="10" fill="white"/>
<path d="M51.6457 142.113V143.148H40.4351V142.113H51.6457ZM46.6471 142.592V147.16H45.3709V142.592H46.6471ZM43.1181 135.408V137.003H48.9482V135.408H50.2438V140.726H41.8322V135.408H43.1181ZM43.1181 139.682H48.9482V138.043H43.1181V139.682ZM58.2637 136.651C58.2637 137.511 58.0348 138.315 57.5772 139.063C57.1228 139.807 56.5121 140.439 55.745 140.958C54.9812 141.477 54.1513 141.836 53.2554 142.036L52.6753 140.953C53.4488 140.808 54.1755 140.521 54.8555 140.093C55.5388 139.661 56.0866 139.142 56.4992 138.536C56.9149 137.93 57.1244 137.302 57.1276 136.651V135.727H58.2637V136.651ZM58.4957 136.651C58.4957 137.302 58.702 137.932 59.1145 138.541C59.5302 139.147 60.0814 139.666 60.7678 140.097C61.4575 140.526 62.1907 140.811 62.9674 140.953L62.3776 142.036C61.4817 141.843 60.6518 141.488 59.888 140.972C59.1242 140.453 58.5151 139.82 58.0606 139.073C57.6062 138.322 57.3806 137.514 57.3838 136.651V135.727H58.4957V136.651ZM63.4847 144.472V145.55H52.274V144.472H63.4847ZM77.3787 134.91V147.184H76.0735V134.91H77.3787ZM70.8186 135.829C71.4277 135.829 71.9708 136.006 72.4478 136.36C72.928 136.715 73.3034 137.218 73.5741 137.869C73.8449 138.517 73.9802 139.269 73.9802 140.126C73.9802 140.99 73.8449 141.747 73.5741 142.398C73.3034 143.049 72.928 143.552 72.4478 143.907C71.9708 144.258 71.4277 144.434 70.8186 144.434C70.2063 144.434 69.66 144.258 69.1798 143.907C68.7028 143.552 68.329 143.051 68.0583 142.403C67.7875 141.752 67.6522 140.993 67.6522 140.126C67.6522 139.266 67.7875 138.512 68.0583 137.864C68.329 137.213 68.7028 136.712 69.1798 136.36C69.66 136.006 70.2063 135.829 70.8186 135.829ZM70.8186 136.989C70.4448 136.992 70.1128 137.121 69.8228 137.376C69.5327 137.63 69.3071 137.994 69.146 138.468C68.9848 138.942 68.9043 139.495 68.9043 140.126C68.9043 140.765 68.9848 141.32 69.146 141.794C69.3071 142.268 69.5327 142.632 69.8228 142.887C70.1128 143.141 70.4448 143.269 70.8186 143.269C71.1957 143.269 71.526 143.141 71.8096 142.887C72.0965 142.632 72.3205 142.268 72.4816 141.794C72.6427 141.32 72.7233 140.765 72.7233 140.126C72.7233 139.495 72.6427 138.942 72.4816 138.468C72.3205 137.994 72.0965 137.63 71.8096 137.376C71.5228 137.121 71.1925 136.992 70.8186 136.989ZM90.2425 141.19V142.234H79.0319V141.19H90.2425ZM88.8309 135.186V138.202H81.7584V139.74H80.4725V137.25H87.5353V136.211H80.4386V135.186H88.8309ZM89.0823 139.256V140.262H80.4725V139.256H89.0823ZM88.8503 143.23V147.006H80.5305V143.23H88.8503ZM81.8019 144.269V145.952H87.5692V144.269H81.8019Z" fill="#36383E" fill-opacity="0.8"/>
<rect x="40.5" y="155.5" width="294" height="43" rx="10.5" fill="white"/>
<rect x="40.5" y="155.5" width="294" height="43" rx="10.5" stroke="#D2D4DA"/>
<path d="M67.6457 178.613V179.648H56.4351V178.613H67.6457ZM62.6471 179.092V183.66H61.3709V179.092H62.6471ZM59.1181 171.908V173.503H64.9482V171.908H66.2438V177.226H57.8322V171.908H59.1181ZM59.1181 176.182H64.9482V174.543H59.1181V176.182ZM74.2637 173.151C74.2637 174.011 74.0348 174.815 73.5772 175.563C73.1228 176.307 72.5121 176.939 71.745 177.458C70.9812 177.977 70.1513 178.336 69.2554 178.536L68.6753 177.453C69.4488 177.308 70.1755 177.021 70.8555 176.593C71.5388 176.161 72.0866 175.642 72.4992 175.036C72.9149 174.43 73.1244 173.802 73.1276 173.151V172.227H74.2637V173.151ZM74.4957 173.151C74.4957 173.802 74.702 174.432 75.1145 175.041C75.5302 175.647 76.0814 176.166 76.7678 176.597C77.4575 177.026 78.1907 177.311 78.9674 177.453L78.3776 178.536C77.4817 178.343 76.6518 177.988 75.888 177.472C75.1242 176.953 74.5151 176.32 74.0606 175.573C73.6062 174.822 73.3806 174.014 73.3838 173.151V172.227H74.4957V173.151ZM79.4847 180.972V182.05H68.274V180.972H79.4847ZM93.3787 171.41V183.684H92.0735V171.41H93.3787ZM86.8186 172.329C87.4277 172.329 87.9708 172.506 88.4478 172.86C88.928 173.215 89.3034 173.718 89.5741 174.369C89.8449 175.017 89.9802 175.769 89.9802 176.626C89.9802 177.49 89.8449 178.247 89.5741 178.898C89.3034 179.549 88.928 180.052 88.4478 180.407C87.9708 180.758 87.4277 180.934 86.8186 180.934C86.2063 180.934 85.66 180.758 85.1798 180.407C84.7028 180.052 84.329 179.551 84.0583 178.903C83.7875 178.252 83.6522 177.493 83.6522 176.626C83.6522 175.766 83.7875 175.012 84.0583 174.364C84.329 173.713 84.7028 173.212 85.1798 172.86C85.66 172.506 86.2063 172.329 86.8186 172.329ZM86.8186 173.489C86.4448 173.492 86.1128 173.621 85.8228 173.876C85.5327 174.13 85.3071 174.494 85.146 174.968C84.9848 175.442 84.9043 175.995 84.9043 176.626C84.9043 177.265 84.9848 177.82 85.146 178.294C85.3071 178.768 85.5327 179.132 85.8228 179.387C86.1128 179.641 86.4448 179.769 86.8186 179.769C87.1957 179.769 87.526 179.641 87.8096 179.387C88.0965 179.132 88.3205 178.768 88.4816 178.294C88.6427 177.82 88.7233 177.265 88.7233 176.626C88.7233 175.995 88.6427 175.442 88.4816 174.968C88.3205 174.494 88.0965 174.13 87.8096 173.876C87.5228 173.621 87.1925 173.492 86.8186 173.489ZM106.243 177.69V178.734H95.0319V177.69H106.243ZM104.831 171.686V174.702H97.7584V176.24H96.4725V173.75H103.535V172.711H96.4386V171.686H104.831ZM105.082 175.756V176.762H96.4725V175.756H105.082ZM104.85 179.73V183.506H96.5305V179.73H104.85ZM97.8019 180.769V182.452H103.569V180.769H97.8019ZM112.445 171.613C113.366 171.613 114.153 171.694 114.804 171.855C115.458 172.016 115.956 172.255 116.298 172.57C116.642 172.883 116.815 173.265 116.815 173.716C116.815 174.174 116.642 174.562 116.298 174.881C115.956 175.197 115.458 175.437 114.804 175.602C114.153 175.763 113.366 175.845 112.445 175.848C111.523 175.845 110.733 175.763 110.076 175.602C109.422 175.437 108.922 175.197 108.577 174.881C108.236 174.562 108.065 174.174 108.065 173.716C108.065 173.268 108.237 172.886 108.582 172.57C108.927 172.255 109.427 172.016 110.081 171.855C110.735 171.694 111.523 171.613 112.445 171.613ZM112.445 172.58C111.8 172.577 111.251 172.622 110.796 172.715C110.342 172.806 109.999 172.936 109.767 173.107C109.534 173.275 109.42 173.478 109.423 173.716C109.42 173.968 109.534 174.18 109.767 174.354C109.999 174.525 110.339 174.654 110.787 174.741C111.235 174.828 111.787 174.872 112.445 174.872C113.109 174.872 113.665 174.828 114.113 174.741C114.564 174.654 114.905 174.525 115.137 174.354C115.369 174.18 115.485 173.968 115.485 173.716C115.485 173.478 115.368 173.275 115.133 173.107C114.901 172.936 114.556 172.806 114.098 172.715C113.644 172.625 113.093 172.58 112.445 172.58ZM118.038 176.593V177.632H106.871V176.593H118.038ZM116.622 178.575V181.441H109.496V182.809H108.224V180.508H115.345V179.546H108.2V178.575H116.622ZM116.974 182.539V183.544H108.224V182.539H116.974ZM131.99 171.41V177.985H130.69V171.41H131.99ZM125.241 178.579V179.952H130.699V178.579H131.99V183.506H123.97V178.579H125.241ZM125.241 182.447H130.699V180.977H125.241V182.447ZM125.338 171.976C125.957 171.973 126.513 172.09 127.006 172.329C127.502 172.567 127.891 172.904 128.171 173.339C128.451 173.774 128.592 174.269 128.592 174.823C128.592 175.371 128.451 175.861 128.171 176.293C127.891 176.725 127.502 177.06 127.006 177.298C126.513 177.537 125.957 177.654 125.338 177.651C124.719 177.654 124.162 177.537 123.665 177.298C123.169 177.06 122.779 176.725 122.496 176.293C122.215 175.861 122.075 175.371 122.075 174.823C122.075 174.269 122.215 173.774 122.496 173.339C122.779 172.904 123.169 172.567 123.665 172.329C124.162 172.09 124.719 171.973 125.338 171.976ZM125.338 173.068C124.951 173.065 124.606 173.138 124.304 173.286C124.001 173.431 123.764 173.637 123.593 173.905C123.425 174.172 123.343 174.478 123.346 174.823C123.343 175.168 123.425 175.474 123.593 175.742C123.764 176.006 124.001 176.212 124.304 176.36C124.606 176.506 124.951 176.58 125.338 176.583C125.718 176.58 126.058 176.506 126.358 176.36C126.661 176.212 126.896 176.006 127.064 175.742C127.235 175.474 127.32 175.168 127.32 174.823C127.32 174.478 127.235 174.172 127.064 173.905C126.896 173.637 126.661 173.431 126.358 173.286C126.058 173.138 125.718 173.065 125.338 173.068ZM135.04 177.419C136.323 177.419 137.314 177.4 138.013 177.361C138.716 177.323 139.414 177.239 140.107 177.11L140.232 178.169C139.523 178.288 138.806 178.367 138.081 178.405C137.359 178.441 136.346 178.46 135.04 178.463H134.156V177.419H135.04ZM139.478 172.15V175.718H135.442V178.062H134.156V174.731H138.187V173.184H134.131V172.15H139.478ZM143.858 171.42V178.952H142.562V171.42H143.858ZM142.833 173.204V174.243H140.256V173.204H142.833ZM142.833 175.756V176.805H140.256V175.756H142.833ZM143.858 179.575V183.675H142.562V180.624H135.538V179.575H143.858ZM151.515 173.441V174.49H145.439V173.441H151.515ZM148.489 175.224C148.998 175.224 149.454 175.345 149.857 175.587C150.263 175.829 150.579 176.164 150.805 176.593C151.033 177.018 151.149 177.501 151.153 178.043C151.149 178.594 151.033 179.087 150.805 179.522C150.579 179.954 150.263 180.291 149.857 180.532C149.454 180.771 148.998 180.89 148.489 180.89C147.98 180.89 147.524 180.769 147.121 180.528C146.718 180.283 146.402 179.946 146.173 179.517C145.945 179.085 145.832 178.594 145.835 178.043C145.832 177.501 145.945 177.018 146.173 176.593C146.402 176.164 146.718 175.829 147.121 175.587C147.524 175.345 147.98 175.224 148.489 175.224ZM148.489 176.307C148.196 176.311 147.935 176.386 147.706 176.535C147.477 176.68 147.298 176.884 147.169 177.148C147.04 177.41 146.976 177.708 146.976 178.043C146.976 178.388 147.04 178.692 147.169 178.956C147.298 179.218 147.477 179.421 147.706 179.566C147.935 179.707 148.196 179.777 148.489 179.773C148.779 179.777 149.039 179.707 149.267 179.566C149.496 179.421 149.675 179.216 149.804 178.952C149.936 178.687 150.002 178.384 150.002 178.043C150.002 177.708 149.936 177.41 149.804 177.148C149.675 176.884 149.496 176.68 149.267 176.535C149.039 176.386 148.779 176.311 148.489 176.307ZM155.958 171.41V183.66H154.72V171.41H155.958ZM155.126 176.515V177.574H152.874V176.515H155.126ZM153.309 171.686V183.085H152.086V171.686H153.309ZM149.132 171.773V174.093H147.846V171.773H149.132ZM163.267 173.136C163.264 173.848 163.045 174.503 162.61 175.099C162.178 175.692 161.593 176.186 160.855 176.583C160.117 176.976 159.298 177.244 158.399 177.385L157.911 176.36C158.675 176.257 159.379 176.046 160.023 175.727C160.671 175.405 161.184 175.018 161.561 174.567C161.941 174.113 162.133 173.636 162.136 173.136V172.672H163.267V173.136ZM163.606 173.136C163.602 173.636 163.789 174.113 164.166 174.567C164.547 175.018 165.061 175.405 165.709 175.727C166.356 176.046 167.065 176.257 167.836 176.36L167.357 177.385C166.451 177.244 165.628 176.976 164.887 176.583C164.145 176.186 163.557 175.692 163.122 175.099C162.69 174.506 162.474 173.852 162.474 173.136V172.672H163.606V173.136ZM163.48 179.034V183.655H162.204V179.034H163.48ZM168.454 178.314V179.372H157.287V178.314H168.454ZM167.405 172.14V173.175H158.322V172.14H167.405ZM176.266 175.718V176.796H173.965V175.718H176.266ZM172.597 174.814C172.594 175.693 172.481 176.543 172.259 177.361C172.04 178.177 171.716 178.908 171.287 179.556C170.858 180.204 170.346 180.71 169.75 181.074L168.938 180.107C169.498 179.772 169.977 179.324 170.373 178.763C170.773 178.202 171.074 177.582 171.277 176.902C171.48 176.222 171.582 175.526 171.582 174.814V172.527H172.597V174.814ZM172.839 174.756C172.839 175.436 172.931 176.098 173.114 176.742C173.301 177.384 173.579 177.974 173.946 178.512C174.317 179.05 174.768 179.48 175.3 179.802L174.57 180.808C173.977 180.45 173.475 179.956 173.066 179.324C172.657 178.692 172.351 177.985 172.148 177.202C171.948 176.419 171.849 175.603 171.853 174.756V172.527H172.839V174.756ZM179.641 171.41V183.66H178.393V171.41H179.641ZM177.098 171.647V183.056H175.875V171.647H177.098ZM184.886 177.695V181.287H183.609V177.695H184.886ZM189.449 177.695V181.287H188.139V177.695H189.449ZM192.137 181.059V182.133H180.926V181.059H192.137ZM186.5 172.121C187.374 172.124 188.154 172.259 188.84 172.527C189.527 172.791 190.063 173.167 190.45 173.653C190.837 174.137 191.03 174.694 191.03 175.326C191.03 175.958 190.837 176.515 190.45 176.999C190.063 177.479 189.527 177.851 188.84 178.115C188.154 178.376 187.374 178.507 186.5 178.507C185.627 178.507 184.849 178.376 184.165 178.115C183.482 177.851 182.947 177.479 182.56 176.999C182.177 176.515 181.985 175.958 181.985 175.326C181.985 174.691 182.177 174.132 182.56 173.648C182.947 173.165 183.482 172.791 184.165 172.527C184.852 172.259 185.63 172.124 186.5 172.121ZM186.5 173.17C185.865 173.167 185.301 173.252 184.808 173.426C184.318 173.6 183.935 173.852 183.658 174.18C183.384 174.509 183.247 174.891 183.247 175.326C183.247 175.755 183.384 176.133 183.658 176.462C183.935 176.788 184.318 177.041 184.808 177.221C185.301 177.401 185.865 177.492 186.5 177.492C187.135 177.492 187.699 177.401 188.192 177.221C188.685 177.041 189.071 176.788 189.348 176.462C189.625 176.133 189.763 175.755 189.763 175.326C189.763 174.891 189.625 174.509 189.348 174.18C189.071 173.852 188.685 173.6 188.192 173.426C187.699 173.252 187.135 173.167 186.5 173.17ZM194.138 182.592C193.961 182.592 193.797 182.548 193.645 182.461C193.497 182.371 193.379 182.253 193.292 182.108C193.205 181.96 193.163 181.799 193.167 181.625C193.163 181.451 193.205 181.29 193.292 181.142C193.379 180.993 193.497 180.876 193.645 180.789C193.797 180.702 193.961 180.658 194.138 180.658C194.309 180.658 194.467 180.702 194.612 180.789C194.76 180.876 194.88 180.993 194.97 181.142C195.06 181.29 195.105 181.451 195.105 181.625C195.105 181.799 195.06 181.96 194.97 182.108C194.883 182.253 194.765 182.371 194.617 182.461C194.469 182.548 194.309 182.592 194.138 182.592Z" fill="#C8C9CD"/>
<rect x="259" y="211" width="76" height="38" rx="9" fill="#FFCC3E"/>
<path d="M284.099 224.494V230.13H282.985V224.494H284.099ZM278.315 230.64V231.816H282.993V230.64H284.099V234.862H277.225V230.64H278.315ZM278.315 233.954H282.993V232.695H278.315V233.954ZM278.398 224.979C278.928 224.977 279.405 225.077 279.827 225.282C280.253 225.486 280.586 225.775 280.826 226.148C281.066 226.521 281.186 226.945 281.186 227.42C281.186 227.89 281.066 228.309 280.826 228.68C280.586 229.05 280.253 229.337 279.827 229.541C279.405 229.746 278.928 229.847 278.398 229.844C277.867 229.847 277.39 229.746 276.964 229.541C276.539 229.337 276.204 229.05 275.961 228.68C275.721 228.309 275.601 227.89 275.601 227.42C275.601 226.945 275.721 226.521 275.961 226.148C276.204 225.775 276.539 225.486 276.964 225.282C277.39 225.077 277.867 224.977 278.398 224.979ZM278.398 225.916C278.066 225.913 277.771 225.975 277.511 226.102C277.251 226.227 277.048 226.403 276.902 226.633C276.758 226.862 276.688 227.124 276.691 227.42C276.688 227.715 276.758 227.978 276.902 228.207C277.048 228.434 277.251 228.61 277.511 228.738C277.771 228.862 278.066 228.925 278.398 228.928C278.724 228.925 279.015 228.862 279.272 228.738C279.532 228.61 279.733 228.434 279.877 228.207C280.023 227.978 280.097 227.715 280.097 227.42C280.097 227.124 280.023 226.862 279.877 226.633C279.733 226.403 279.532 226.227 279.272 226.102C279.015 225.975 278.724 225.913 278.398 225.916ZM286.714 229.645C287.813 229.645 288.663 229.628 289.262 229.595C289.865 229.562 290.463 229.49 291.057 229.38L291.164 230.287C290.557 230.39 289.942 230.457 289.32 230.49C288.702 230.521 287.833 230.537 286.714 230.54H285.956V229.645H286.714ZM290.518 225.128V228.186H287.058V230.196H285.956V227.341H289.411V226.015H285.935V225.128H290.518ZM294.272 224.503V230.959H293.161V224.503H294.272ZM293.394 226.032V226.923H291.185V226.032H293.394ZM293.394 228.22V229.119H291.185V228.22H293.394ZM294.272 231.493V235.007H293.161V232.392H287.141V231.493H294.272ZM302.108 228.825V230.424H300.993V228.825H302.108ZM301.524 224.967C302.032 224.967 302.484 225.055 302.879 225.232C303.276 225.406 303.587 225.652 303.811 225.97C304.035 226.285 304.148 226.648 304.151 227.059C304.148 227.465 304.035 227.827 303.811 228.145C303.587 228.46 303.276 228.706 302.879 228.883C302.481 229.057 302.029 229.144 301.524 229.144C301.018 229.144 300.567 229.057 300.169 228.883C299.771 228.706 299.462 228.46 299.241 228.145C299.02 227.827 298.91 227.465 298.913 227.059C298.91 226.648 299.02 226.285 299.241 225.97C299.462 225.652 299.77 225.406 300.165 225.232C300.562 225.055 301.015 224.967 301.524 224.967ZM301.524 225.816C301.217 225.816 300.944 225.869 300.703 225.974C300.466 226.076 300.279 226.221 300.144 226.409C300.011 226.594 299.946 226.811 299.949 227.059C299.946 227.305 300.011 227.522 300.144 227.71C300.279 227.895 300.466 228.039 300.703 228.141C300.944 228.243 301.217 228.296 301.524 228.298C301.836 228.296 302.109 228.243 302.344 228.141C302.582 228.039 302.767 227.895 302.899 227.71C303.032 227.522 303.1 227.305 303.102 227.059C303.1 226.811 303.032 226.594 302.899 226.409C302.767 226.221 302.582 226.076 302.344 225.974C302.109 225.869 301.836 225.816 301.524 225.816ZM306.6 224.503V232.533H305.489V224.503H306.6ZM308.096 227.975V228.912H306.165V227.975H308.096ZM306.977 233.855V234.771H299.808V233.855H306.977ZM300.927 231.829V234.265H299.808V231.829H300.927ZM298.325 230.126C299.485 230.128 300.622 230.106 301.735 230.059C302.848 230.01 303.884 229.914 304.843 229.773L304.93 230.594C303.946 230.771 302.917 230.888 301.843 230.946C300.771 231.001 299.64 231.029 298.449 231.029L298.325 230.126ZM312.177 230.631V233.192H311.095V230.631H312.177ZM315.558 230.619V233.184H314.464V230.619H315.558ZM318.082 232.811V233.735H308.472V232.811H318.082ZM316.905 225.24V228.518H310.747V230.528H309.641V227.61H315.807V226.148H309.62V225.24H316.905ZM317.149 230.039V230.95H309.641V230.039H317.149Z" fill="#36383E" fill-opacity="0.9"/>
<rect x="20" y="279" width="335" height="76" rx="10" fill="white"/>
<path d="M47.9137 305.26V306.324H45.2355V305.26H47.9137ZM47.8847 308.325V309.389H45.1485V308.325H47.8847ZM50.9834 301.91V314.16H49.7507V301.91H50.9834ZM48.4793 302.224V313.566H47.2417V302.224H48.4793ZM45.7431 303.433C45.7399 304.567 45.5836 305.623 45.2742 306.599C44.9648 307.576 44.4701 308.483 43.7901 309.321C43.1133 310.159 42.235 310.9 41.1554 311.545L40.3819 310.622C41.3294 310.061 42.1061 309.427 42.712 308.722C43.3179 308.016 43.7643 307.246 44.0511 306.411C44.3412 305.573 44.4878 304.664 44.491 303.684V303.433H45.7431ZM44.9696 303.433V304.501H40.9862V303.433H44.9696ZM56.4122 304.086C56.4089 304.808 56.2671 305.478 55.9867 306.097C55.7064 306.712 55.3051 307.246 54.783 307.697C54.2609 308.148 53.647 308.486 52.9412 308.712L52.2837 307.692C52.9057 307.502 53.4471 307.226 53.908 306.865C54.3689 306.504 54.7234 306.085 54.9715 305.608C55.2229 305.128 55.3502 304.621 55.3534 304.086V303.385H56.4122V304.086ZM56.6635 304.086C56.6603 304.582 56.7779 305.054 57.0164 305.502C57.2581 305.95 57.603 306.346 58.051 306.691C58.5022 307.036 59.0323 307.299 59.6414 307.479L59.0226 308.499C58.3201 308.287 57.711 307.966 57.1953 307.537C56.6796 307.105 56.2848 306.593 56.0109 306C55.7402 305.407 55.6064 304.769 55.6097 304.086V303.385H56.6635V304.086ZM59.3272 302.998V304.071H52.6753V302.998H59.3272ZM56.6635 308.2V310.994H55.368V308.2H56.6635ZM63.7119 306.914V308.011H61.4543V306.914H63.7119ZM61.8265 301.91V314.16H60.5309V301.91H61.8265ZM52.1193 310.597H52.5254C53.46 310.597 54.306 310.591 55.0634 310.578C55.824 310.562 56.6184 310.528 57.4467 310.477C58.2782 310.425 59.0597 310.349 59.7913 310.249L59.8831 311.197C59.1226 311.335 58.3297 311.439 57.5047 311.506C56.6829 311.574 55.8997 311.617 55.1552 311.637C54.414 311.656 53.5954 311.667 52.6994 311.671H52.3079L52.1193 310.597ZM73.3706 305.304V306.363H69.9334V305.304H73.3706ZM74.3036 301.92V310.974H73.008V301.92H74.3036ZM74.5791 312.845V313.909H66.3029V312.845H74.5791ZM67.613 310.085V313.401H66.3029V310.085H67.613ZM65.9742 302.727V304.806H69.0439V302.727H70.3298V308.934H64.6737V302.727H65.9742ZM65.9742 307.89H69.0439V305.811H65.9742V307.89ZM86.5244 303.631V304.69H76.4402V303.631H86.5244ZM87.1239 311.724V312.787H75.9132V311.724H87.1239ZM82.1253 309.858V312.13H80.849V309.858H82.1253ZM81.4823 305.425C82.3138 305.425 83.0357 305.518 83.6481 305.705C84.2604 305.889 84.7325 306.156 85.0645 306.508C85.3997 306.859 85.5673 307.276 85.5673 307.76C85.5673 308.253 85.3997 308.678 85.0645 309.036C84.7325 309.39 84.2604 309.663 83.6481 309.853C83.0357 310.04 82.3138 310.133 81.4823 310.133C80.6444 310.133 79.9176 310.04 79.3021 309.853C78.6897 309.663 78.2192 309.39 77.8905 309.036C77.5617 308.678 77.399 308.253 77.4022 307.76C77.399 307.273 77.5617 306.856 77.8905 306.508C78.2192 306.156 78.6897 305.889 79.3021 305.705C79.9176 305.518 80.6444 305.425 81.4823 305.425ZM81.4823 306.45C80.9022 306.45 80.4059 306.5 79.9934 306.599C79.5808 306.699 79.265 306.849 79.0458 307.049C78.8299 307.246 78.7219 307.483 78.7219 307.76C78.7219 308.043 78.8299 308.285 79.0458 308.485C79.265 308.681 79.5792 308.831 79.9885 308.934C80.401 309.034 80.899 309.086 81.4823 309.089C82.0592 309.086 82.5523 309.034 82.9616 308.934C83.3741 308.831 83.69 308.681 83.9091 308.485C84.1315 308.285 84.2427 308.043 84.2427 307.76C84.2427 307.483 84.1315 307.246 83.9091 307.049C83.69 306.849 83.3741 306.699 82.9616 306.599C82.5523 306.5 82.0592 306.45 81.4823 306.45ZM82.1253 302.089V304.294H80.849V302.089H82.1253Z" fill="#36383E" fill-opacity="0.8"/>
<rect x="262" y="297" width="73" height="40" rx="9" fill="#36383E" fill-opacity="0.05"/>
<path d="M287.974 316.425V317.345H278.39V316.425H287.974ZM286.855 314.615V315.514H279.583V314.615H286.855ZM286.793 311.872V312.779H280.685V315.058H279.583V311.872H286.793ZM283.163 318.166C283.914 318.166 284.562 318.24 285.106 318.39C285.651 318.536 286.066 318.753 286.354 319.04C286.644 319.325 286.79 319.669 286.793 320.072C286.79 320.478 286.644 320.823 286.354 321.108C286.066 321.392 285.651 321.608 285.106 321.754C284.565 321.903 283.917 321.978 283.163 321.978C282.406 321.978 281.756 321.903 281.211 321.754C280.667 321.608 280.249 321.392 279.956 321.108C279.666 320.823 279.521 320.478 279.521 320.072C279.521 319.669 279.666 319.325 279.956 319.04C280.249 318.753 280.667 318.536 281.211 318.39C281.758 318.24 282.409 318.166 283.163 318.166ZM283.163 319.023C282.63 319.026 282.175 319.069 281.8 319.152C281.424 319.235 281.138 319.355 280.942 319.512C280.746 319.667 280.649 319.854 280.652 320.072C280.649 320.296 280.746 320.486 280.942 320.644C281.138 320.798 281.423 320.916 281.796 320.996C282.171 321.073 282.627 321.112 283.163 321.112C283.693 321.112 284.145 321.073 284.518 320.996C284.894 320.916 285.181 320.798 285.38 320.644C285.579 320.486 285.68 320.296 285.682 320.072C285.68 319.854 285.579 319.667 285.38 319.512C285.181 319.355 284.894 319.235 284.518 319.152C284.142 319.069 283.691 319.026 283.163 319.023ZM298.113 317.225V318.133H288.504V317.225H298.113ZM296.903 311.739V314.383H290.841V315.713H289.739V313.558H295.793V312.622H289.71V311.739H296.903ZM297.119 315.356V316.231H289.739V315.356H297.119ZM293.858 315.787V317.689H292.764V315.787H293.858ZM296.961 318.862V321.912H295.842V319.757H289.581V318.862H296.961ZM306.831 311.494V321.994H305.729V311.494H306.831ZM308.514 315.75V316.674H306.583V315.75H308.514ZM304.813 313.14V314.047H298.594V313.14H304.813ZM301.747 314.822C302.241 314.822 302.686 314.927 303.081 315.137C303.476 315.344 303.787 315.633 304.014 316.003C304.24 316.373 304.353 316.794 304.353 317.267C304.353 317.739 304.24 318.16 304.014 318.53C303.787 318.901 303.476 319.189 303.081 319.396C302.686 319.604 302.241 319.707 301.747 319.707C301.247 319.707 300.798 319.604 300.4 319.396C300.003 319.189 299.692 318.901 299.468 318.53C299.244 318.157 299.132 317.736 299.132 317.267C299.132 316.797 299.244 316.377 299.468 316.007C299.692 315.634 300.003 315.344 300.4 315.137C300.798 314.927 301.247 314.822 301.747 314.822ZM301.747 315.742C301.449 315.742 301.182 315.807 300.947 315.936C300.712 316.064 300.527 316.243 300.392 316.475C300.259 316.707 300.195 316.971 300.197 317.267C300.195 317.562 300.259 317.826 300.392 318.058C300.527 318.287 300.712 318.465 300.947 318.593C301.182 318.717 301.449 318.779 301.747 318.779C302.043 318.779 302.306 318.717 302.538 318.593C302.77 318.465 302.953 318.287 303.085 318.058C303.221 317.826 303.29 317.562 303.293 317.267C303.29 316.971 303.221 316.707 303.085 316.475C302.953 316.243 302.769 316.064 302.534 315.936C302.302 315.807 302.04 315.742 301.747 315.742ZM302.294 311.631V313.525H301.183V311.631H302.294ZM317.509 311.494V321.994H316.391V311.494H317.509ZM314.389 312.626C314.386 313.692 314.221 314.681 313.892 315.593C313.563 316.501 313.036 317.337 312.309 318.099C311.585 318.862 310.639 319.522 309.471 320.08L308.882 319.181C309.891 318.703 310.719 318.148 311.368 317.515C312.02 316.883 312.502 316.175 312.815 315.394C313.127 314.612 313.284 313.749 313.287 312.804V312.626H314.389ZM313.772 312.626V313.512H309.392V312.626H313.772Z" fill="#36383E" fill-opacity="0.9"/>
<rect x="20" y="367" width="335" height="76" rx="10" fill="white"/>
<path d="M45.98 397.611C46.8598 397.611 47.6252 397.701 48.2762 397.882C48.9273 398.062 49.4284 398.323 49.7797 398.665C50.131 399.007 50.3082 399.413 50.3115 399.883C50.3082 400.351 50.131 400.753 49.7797 401.092C49.4284 401.43 48.9273 401.69 48.2762 401.87C47.6252 402.051 46.8598 402.141 45.98 402.141C45.1066 402.141 44.3444 402.051 43.6934 401.87C43.0456 401.69 42.546 401.43 42.1948 401.092C41.8435 400.753 41.6678 400.351 41.6678 399.883C41.6678 399.413 41.8419 399.007 42.1899 398.665C42.5412 398.323 43.0424 398.062 43.6934 397.882C44.3444 397.701 45.1066 397.611 45.98 397.611ZM45.98 398.593C45.3612 398.596 44.8246 398.649 44.3702 398.752C43.9157 398.855 43.5661 399.003 43.3211 399.197C43.0794 399.387 42.9602 399.616 42.9634 399.883C42.9602 400.144 43.0794 400.368 43.3211 400.555C43.5661 400.742 43.9157 400.886 44.3702 400.985C44.8246 401.082 45.3612 401.131 45.98 401.131C46.602 401.131 47.1402 401.082 47.5946 400.985C48.049 400.886 48.3987 400.742 48.6436 400.555C48.8918 400.368 49.0175 400.144 49.0207 399.883C49.0175 399.616 48.8918 399.387 48.6436 399.197C48.3987 399.003 48.049 398.855 47.5946 398.752C47.1402 398.649 46.602 398.596 45.98 398.593ZM49.6782 390.51V391.554H41.7693V390.51H49.6782ZM51.607 395.542V396.596H40.4689V395.542H51.607ZM46.212 393.246V395.847H44.9358V393.246H46.212ZM50.2196 391.539V391.626C50.2196 392.036 50.2132 392.393 50.2003 392.7C50.1874 393.003 50.1552 393.333 50.1036 393.691C50.0552 394.045 49.9795 394.413 49.8764 394.793L48.6001 394.662C48.7033 394.272 48.7774 393.907 48.8225 393.565C48.8709 393.22 48.8999 392.907 48.9095 392.627C48.9224 392.347 48.9289 391.997 48.9289 391.578V391.539V390.51H50.2196V391.539ZM56.5282 393.526C56.525 394.409 56.3719 395.271 56.0689 396.113C55.766 396.954 55.347 397.7 54.812 398.351C54.277 399.002 53.6727 399.492 52.9992 399.82L52.2402 398.796C52.8461 398.515 53.394 398.093 53.8838 397.529C54.3737 396.965 54.7588 396.332 55.0392 395.629C55.3196 394.927 55.4614 394.226 55.4646 393.526V391.704H56.5282V393.526ZM56.7796 393.526C56.7796 394.206 56.9165 394.878 57.1905 395.542C57.4676 396.203 57.8511 396.794 58.341 397.316C58.8341 397.835 59.3901 398.227 60.0088 398.491L59.2982 399.516C58.6021 399.206 57.9833 398.747 57.4418 398.138C56.9004 397.526 56.4798 396.822 56.1801 396.026C55.8836 395.226 55.737 394.393 55.7402 393.526V391.704H56.7796V393.526ZM59.5738 391.143V392.216H52.6704V391.143H59.5738ZM62.4211 389.91V402.16H61.1159V389.91H62.4211ZM68.1061 393.028C68.1061 393.96 67.9643 394.86 67.6807 395.731C67.4003 396.598 67.0006 397.368 66.4818 398.041C65.9661 398.712 65.3699 399.223 64.6931 399.574L63.8858 398.53C64.5013 398.233 65.0476 397.797 65.5246 397.22C66.0048 396.64 66.377 395.984 66.6413 395.252C66.9088 394.52 67.0441 393.779 67.0474 393.028V390.93H68.1061V393.028ZM68.3381 393.028C68.3349 393.75 68.4622 394.461 68.72 395.16C68.9811 395.856 69.3453 396.482 69.8126 397.036C70.2831 397.587 70.8165 398.009 71.4127 398.302L70.615 399.342C69.9544 399 69.371 398.506 68.865 397.858C68.3591 397.207 67.9691 396.464 67.6952 395.629C67.4244 394.794 67.2907 393.927 67.2939 393.028V390.93H68.3381V393.028ZM73.6365 389.91V402.16H72.336V389.91H73.6365ZM75.5992 394.798V395.905H73.3464V394.798H75.5992ZM85.5382 389.91V397.771H84.2378V389.91H85.5382ZM87.3124 393.227V394.324H85.1757V393.227H87.3124ZM81.6225 397.867C82.454 397.867 83.1727 397.953 83.7786 398.124C84.3877 398.294 84.855 398.541 85.1805 398.863C85.5092 399.182 85.6736 399.566 85.6736 400.014C85.6736 400.455 85.5092 400.836 85.1805 401.155C84.855 401.477 84.3877 401.722 83.7786 401.89C83.1695 402.057 82.4508 402.141 81.6225 402.141C80.7846 402.141 80.0594 402.057 79.4471 401.89C78.838 401.722 78.3707 401.477 78.0452 401.155C77.7196 400.836 77.5585 400.455 77.5617 400.014C77.5585 399.566 77.7196 399.182 78.0452 398.863C78.3707 398.541 78.838 398.294 79.4471 398.124C80.0594 397.953 80.7846 397.867 81.6225 397.867ZM81.6225 398.873C81.0327 398.873 80.53 398.918 80.1142 399.008C79.6985 399.095 79.3826 399.224 79.1667 399.395C78.9508 399.563 78.8444 399.769 78.8476 400.014C78.8444 400.252 78.9524 400.457 79.1715 400.628C79.3907 400.799 79.7081 400.927 80.1239 401.015C80.5396 401.105 81.0392 401.148 81.6225 401.145C82.1994 401.148 82.6941 401.105 83.1066 401.015C83.5224 400.927 83.8382 400.799 84.0541 400.628C84.2701 400.457 84.378 400.252 84.378 400.014C84.378 399.769 84.2701 399.563 84.0541 399.395C83.8382 399.224 83.524 399.095 83.1115 399.008C82.7022 398.918 82.2058 398.873 81.6225 398.873ZM83.2178 391.23V392.255H75.9278V391.23H83.2178ZM79.5776 392.816C80.1609 392.816 80.6766 392.906 81.1246 393.086C81.5725 393.267 81.9206 393.521 82.1688 393.85C82.4169 394.179 82.5426 394.559 82.5458 394.991C82.5426 395.426 82.4169 395.808 82.1688 396.137C81.9206 396.462 81.5725 396.715 81.1246 396.896C80.6766 397.073 80.1609 397.162 79.5776 397.162C78.9878 397.162 78.4673 397.073 78.0161 396.896C77.565 396.715 77.2153 396.462 76.9671 396.137C76.719 395.808 76.5949 395.426 76.5949 394.991C76.5949 394.559 76.719 394.179 76.9671 393.85C77.2153 393.521 77.5633 393.267 78.0113 393.086C78.4625 392.906 78.9846 392.816 79.5776 392.816ZM79.5776 393.773C79.2328 393.776 78.9282 393.828 78.6639 393.927C78.3997 394.027 78.1966 394.169 78.0548 394.353C77.913 394.537 77.8437 394.749 77.8469 394.991C77.8437 395.233 77.913 395.444 78.0548 395.624C78.1966 395.802 78.3997 395.939 78.6639 396.035C78.9282 396.129 79.2328 396.175 79.5776 396.175C79.9225 396.175 80.2254 396.129 80.4865 396.035C80.7475 395.939 80.9505 395.802 81.0956 395.624C81.2406 395.444 81.3147 395.233 81.3179 394.991C81.3147 394.749 81.2406 394.537 81.0956 394.353C80.9505 394.169 80.7475 394.027 80.4865 393.927C80.2254 393.828 79.9225 393.776 79.5776 393.773ZM80.2254 389.823V391.805H78.9347V389.823H80.2254Z" fill="#36383E" fill-opacity="0.8"/>
<rect x="262" y="385" width="73" height="40" rx="9" fill="#36383E" fill-opacity="0.05"/>
<path d="M287.974 404.425V405.345H278.39V404.425H287.974ZM286.855 402.615V403.514H279.583V402.615H286.855ZM286.793 399.872V400.779H280.685V403.058H279.583V399.872H286.793ZM283.163 406.166C283.914 406.166 284.562 406.24 285.106 406.39C285.651 406.536 286.066 406.753 286.354 407.04C286.644 407.325 286.79 407.669 286.793 408.072C286.79 408.478 286.644 408.823 286.354 409.108C286.066 409.392 285.651 409.608 285.106 409.754C284.565 409.903 283.917 409.978 283.163 409.978C282.406 409.978 281.756 409.903 281.211 409.754C280.667 409.608 280.249 409.392 279.956 409.108C279.666 408.823 279.521 408.478 279.521 408.072C279.521 407.669 279.666 407.325 279.956 407.04C280.249 406.753 280.667 406.536 281.211 406.39C281.758 406.24 282.409 406.166 283.163 406.166ZM283.163 407.023C282.63 407.026 282.175 407.069 281.8 407.152C281.424 407.235 281.138 407.355 280.942 407.512C280.746 407.667 280.649 407.854 280.652 408.072C280.649 408.296 280.746 408.486 280.942 408.644C281.138 408.798 281.423 408.916 281.796 408.996C282.171 409.073 282.627 409.112 283.163 409.112C283.693 409.112 284.145 409.073 284.518 408.996C284.894 408.916 285.181 408.798 285.38 408.644C285.579 408.486 285.68 408.296 285.682 408.072C285.68 407.854 285.579 407.667 285.38 407.512C285.181 407.355 284.894 407.235 284.518 407.152C284.142 407.069 283.691 407.026 283.163 407.023ZM298.113 405.225V406.133H288.504V405.225H298.113ZM296.903 399.739V402.383H290.841V403.713H289.739V401.558H295.793V400.622H289.71V399.739H296.903ZM297.119 403.356V404.231H289.739V403.356H297.119ZM293.858 403.787V405.689H292.764V403.787H293.858ZM296.961 406.862V409.912H295.842V407.757H289.581V406.862H296.961ZM306.831 399.494V409.994H305.729V399.494H306.831ZM308.514 403.75V404.674H306.583V403.75H308.514ZM304.813 401.14V402.047H298.594V401.14H304.813ZM301.747 402.822C302.241 402.822 302.686 402.927 303.081 403.137C303.476 403.344 303.787 403.633 304.014 404.003C304.24 404.373 304.353 404.794 304.353 405.267C304.353 405.739 304.24 406.16 304.014 406.53C303.787 406.901 303.476 407.189 303.081 407.396C302.686 407.604 302.241 407.707 301.747 407.707C301.247 407.707 300.798 407.604 300.4 407.396C300.003 407.189 299.692 406.901 299.468 406.53C299.244 406.157 299.132 405.736 299.132 405.267C299.132 404.797 299.244 404.377 299.468 404.007C299.692 403.634 300.003 403.344 300.4 403.137C300.798 402.927 301.247 402.822 301.747 402.822ZM301.747 403.742C301.449 403.742 301.182 403.807 300.947 403.936C300.712 404.064 300.527 404.243 300.392 404.475C300.259 404.707 300.195 404.971 300.197 405.267C300.195 405.562 300.259 405.826 300.392 406.058C300.527 406.287 300.712 406.465 300.947 406.593C301.182 406.717 301.449 406.779 301.747 406.779C302.043 406.779 302.306 406.717 302.538 406.593C302.77 406.465 302.953 406.287 303.085 406.058C303.221 405.826 303.29 405.562 303.293 405.267C303.29 404.971 303.221 404.707 303.085 404.475C302.953 404.243 302.769 404.064 302.534 403.936C302.302 403.807 302.04 403.742 301.747 403.742ZM302.294 399.631V401.525H301.183V399.631H302.294ZM317.509 399.494V409.994H316.391V399.494H317.509ZM314.389 400.626C314.386 401.692 314.221 402.681 313.892 403.593C313.563 404.501 313.036 405.337 312.309 406.099C311.585 406.862 310.639 407.522 309.471 408.08L308.882 407.181C309.891 406.703 310.719 406.148 311.368 405.515C312.02 404.883 312.502 404.175 312.815 403.394C313.127 402.612 313.284 401.749 313.287 400.804V400.626H314.389ZM313.772 400.626V401.512H309.392V400.626H313.772Z" fill="#36383E" fill-opacity="0.9"/>
<rect x="20" y="455" width="335" height="76" rx="10" fill="white"/>
<path d="M50.6015 477.91V490.184H49.2963V477.91H50.6015ZM44.0414 478.829C44.6506 478.829 45.1936 479.006 45.6706 479.36C46.1508 479.715 46.5262 480.218 46.797 480.869C47.0677 481.517 47.203 482.269 47.203 483.126C47.203 483.99 47.0677 484.747 46.797 485.398C46.5262 486.049 46.1508 486.552 45.6706 486.907C45.1936 487.258 44.6506 487.434 44.0414 487.434C43.4291 487.434 42.8828 487.258 42.4026 486.907C41.9256 486.552 41.5518 486.051 41.2811 485.403C41.0104 484.752 40.875 483.993 40.875 483.126C40.875 482.266 41.0104 481.512 41.2811 480.864C41.5518 480.213 41.9256 479.712 42.4026 479.36C42.8828 479.006 43.4291 478.829 44.0414 478.829ZM44.0414 479.989C43.6676 479.992 43.3356 480.121 43.0456 480.376C42.7555 480.63 42.5299 480.994 42.3688 481.468C42.2076 481.942 42.1271 482.495 42.1271 483.126C42.1271 483.765 42.2076 484.32 42.3688 484.794C42.5299 485.268 42.7555 485.632 43.0456 485.887C43.3356 486.141 43.6676 486.269 44.0414 486.269C44.4185 486.269 44.7488 486.141 45.0325 485.887C45.3193 485.632 45.5433 485.268 45.7044 484.794C45.8656 484.32 45.9461 483.765 45.9461 483.126C45.9461 482.495 45.8656 481.942 45.7044 481.468C45.5433 480.994 45.3193 480.63 45.0325 480.376C44.7456 480.121 44.4153 479.992 44.0414 479.989ZM62.7112 477.91V487.202H61.4833V477.91H62.7112ZM59.4577 481.41V482.469H57.234V481.41H59.4577ZM60.3231 478.137V486.825H59.0903V478.137H60.3231ZM54.0192 478.882V480.888H56.388V478.882H57.5965V484.939H52.7913V478.882H54.0192ZM54.0192 483.881H56.388V481.889H54.0192V483.881ZM63.0689 488.845V489.909H54.5896V488.845H63.0689ZM55.8852 485.959V489.43H54.5896V485.959H55.8852ZM74.0329 484.432V485.476H65.5004V484.432H74.0329ZM75.3043 487.55V488.623H64.0936V487.55H75.3043ZM73.912 478.921V479.984H66.8105V484.736H65.5004V478.921H73.912ZM73.6413 481.628V482.662H66.4141V481.628H73.6413Z" fill="#36383E" fill-opacity="0.8"/>
<rect x="262" y="473" width="73" height="40" rx="9" fill="#36383E" fill-opacity="0.05"/>
<path d="M287.974 492.425V493.345H278.39V492.425H287.974ZM286.855 490.615V491.514H279.583V490.615H286.855ZM286.793 487.872V488.779H280.685V491.058H279.583V487.872H286.793ZM283.163 494.166C283.914 494.166 284.562 494.24 285.106 494.39C285.651 494.536 286.066 494.753 286.354 495.04C286.644 495.325 286.79 495.669 286.793 496.072C286.79 496.478 286.644 496.823 286.354 497.108C286.066 497.392 285.651 497.608 285.106 497.754C284.565 497.903 283.917 497.978 283.163 497.978C282.406 497.978 281.756 497.903 281.211 497.754C280.667 497.608 280.249 497.392 279.956 497.108C279.666 496.823 279.521 496.478 279.521 496.072C279.521 495.669 279.666 495.325 279.956 495.04C280.249 494.753 280.667 494.536 281.211 494.39C281.758 494.24 282.409 494.166 283.163 494.166ZM283.163 495.023C282.63 495.026 282.175 495.069 281.8 495.152C281.424 495.235 281.138 495.355 280.942 495.512C280.746 495.667 280.649 495.854 280.652 496.072C280.649 496.296 280.746 496.486 280.942 496.644C281.138 496.798 281.423 496.916 281.796 496.996C282.171 497.073 282.627 497.112 283.163 497.112C283.693 497.112 284.145 497.073 284.518 496.996C284.894 496.916 285.181 496.798 285.38 496.644C285.579 496.486 285.68 496.296 285.682 496.072C285.68 495.854 285.579 495.667 285.38 495.512C285.181 495.355 284.894 495.235 284.518 495.152C284.142 495.069 283.691 495.026 283.163 495.023ZM298.113 493.225V494.133H288.504V493.225H298.113ZM296.903 487.739V490.383H290.841V491.713H289.739V489.558H295.793V488.622H289.71V487.739H296.903ZM297.119 491.356V492.231H289.739V491.356H297.119ZM293.858 491.787V493.689H292.764V491.787H293.858ZM296.961 494.862V497.912H295.842V495.757H289.581V494.862H296.961ZM306.831 487.494V497.994H305.729V487.494H306.831ZM308.514 491.75V492.674H306.583V491.75H308.514ZM304.813 489.14V490.047H298.594V489.14H304.813ZM301.747 490.822C302.241 490.822 302.686 490.927 303.081 491.137C303.476 491.344 303.787 491.633 304.014 492.003C304.24 492.373 304.353 492.794 304.353 493.267C304.353 493.739 304.24 494.16 304.014 494.53C303.787 494.901 303.476 495.189 303.081 495.396C302.686 495.604 302.241 495.707 301.747 495.707C301.247 495.707 300.798 495.604 300.4 495.396C300.003 495.189 299.692 494.901 299.468 494.53C299.244 494.157 299.132 493.736 299.132 493.267C299.132 492.797 299.244 492.377 299.468 492.007C299.692 491.634 300.003 491.344 300.4 491.137C300.798 490.927 301.247 490.822 301.747 490.822ZM301.747 491.742C301.449 491.742 301.182 491.807 300.947 491.936C300.712 492.064 300.527 492.243 300.392 492.475C300.259 492.707 300.195 492.971 300.197 493.267C300.195 493.562 300.259 493.826 300.392 494.058C300.527 494.287 300.712 494.465 300.947 494.593C301.182 494.717 301.449 494.779 301.747 494.779C302.043 494.779 302.306 494.717 302.538 494.593C302.77 494.465 302.953 494.287 303.085 494.058C303.221 493.826 303.29 493.562 303.293 493.267C303.29 492.971 303.221 492.707 303.085 492.475C302.953 492.243 302.769 492.064 302.534 491.936C302.302 491.807 302.04 491.742 301.747 491.742ZM302.294 487.631V489.525H301.183V487.631H302.294ZM317.509 487.494V497.994H316.391V487.494H317.509ZM314.389 488.626C314.386 489.692 314.221 490.681 313.892 491.593C313.563 492.501 313.036 493.337 312.309 494.099C311.585 494.862 310.639 495.522 309.471 496.08L308.882 495.181C309.891 494.703 310.719 494.148 311.368 493.515C312.02 492.883 312.502 492.175 312.815 491.394C313.127 490.612 313.284 489.749 313.287 488.804V488.626H314.389ZM313.772 488.626V489.512H309.392V488.626H313.772Z" fill="#36383E" fill-opacity="0.9"/>
</g>
<defs>
<clipPath id="clip0_777_8235">
<rect width="375" height="812" fill="white"/>
</clipPath>
</defs>
</svg>
